{"glyphs":{"0":{"ha":815,"x_min":61,"x_max":753,"o":"m 670 867 q 711 805 670 867 q 753 486 753 743 q 670 106 753 229 q 407 -18 588 -18 q 144 106 226 -18 q 61 486 61 229 q 144 867 61 743 q 407 990 226 990 q 670 867 588 990 m 323 704 q 312 672 323 704 q 301 486 301 640 q 323 268 301 332 q 407 204 344 204 q 491 268 469 204 q 513 486 513 332 q 491 704 513 640 q 407 768 469 768 q 323 704 344 768 z "},"1":{"ha":494,"x_min":19,"x_max":404,"o":"m 404 972 l 404 0 l 169 0 l 169 740 l 75 711 l 19 908 l 210 972 l 404 972 z "},"2":{"ha":774,"x_min":50,"x_max":722,"o":"m 722 0 l 57 0 l 57 85 q 99 239 57 163 q 203 375 142 315 q 325 488 264 435 q 428 591 386 540 q 471 681 471 642 q 444 748 471 724 q 372 772 418 772 q 256 676 286 772 l 50 738 q 83 822 61 782 q 142 903 104 863 q 242 967 181 943 q 382 990 304 990 q 620 910 528 990 q 713 690 713 829 q 678 558 713 621 q 594 449 644 496 q 492 363 543 403 q 397 282 440 322 q 340 207 353 242 l 722 207 l 722 0 z "},"3":{"ha":763,"x_min":46,"x_max":719,"o":"m 378 -18 q 238 6 300 -18 q 138 69 176 29 q 78 150 100 110 q 46 235 57 190 l 251 296 q 372 200 282 200 q 450 228 421 200 q 479 304 479 257 q 449 376 479 347 q 365 404 419 404 l 231 404 l 231 586 l 404 765 l 86 765 l 86 972 l 676 972 l 676 767 l 500 599 q 719 314 719 554 q 623 74 719 167 q 378 -18 526 -18 z "},"4":{"ha":836,"x_min":35,"x_max":800,"o":"m 800 217 l 692 217 l 692 0 l 460 0 l 460 217 l 35 217 l 35 385 l 413 972 l 692 972 l 692 417 l 800 417 l 800 217 m 460 718 l 276 417 l 460 417 l 460 718 z "},"5":{"ha":765,"x_min":46,"x_max":733,"o":"m 365 444 q 271 400 304 444 l 76 431 l 96 972 l 671 972 l 671 765 l 307 765 l 300 619 q 425 644 353 644 q 641 561 549 644 q 733 342 733 478 q 635 83 733 185 q 389 -18 538 -18 q 155 60 240 -18 q 46 235 69 138 l 251 296 q 376 200 276 200 q 460 234 426 200 q 493 322 493 268 q 461 407 493 369 q 365 444 429 444 z "},"6":{"ha":792,"x_min":50,"x_max":742,"o":"m 699 929 l 608 736 q 482 768 554 768 q 391 751 429 768 q 335 706 353 733 q 311 657 318 679 q 304 617 304 635 q 456 657 360 657 q 662 572 582 657 q 742 331 742 488 q 648 80 742 178 q 404 -18 554 -18 q 129 98 208 -18 q 50 432 50 214 q 61 597 50 521 q 102 748 72 674 q 177 874 132 822 q 297 958 222 926 q 465 990 371 990 q 699 929 599 990 m 400 446 q 290 397 342 446 q 293 324 290 351 q 307 265 296 296 q 342 219 318 233 q 406 204 367 204 q 482 236 456 204 q 508 322 508 268 q 480 412 508 378 q 400 446 451 446 z "},"7":{"ha":728,"x_min":32,"x_max":696,"o":"m 696 806 l 390 0 l 133 0 l 432 765 l 32 765 l 32 972 l 696 972 l 696 806 z "},"8":{"ha":794,"x_min":44,"x_max":750,"o":"m 396 -18 q 139 65 233 -18 q 44 293 44 149 q 78 426 44 368 q 163 515 113 485 q 96 594 124 544 q 68 707 68 643 q 158 910 68 831 q 397 990 247 990 q 637 910 547 990 q 726 707 726 831 q 631 515 726 583 q 717 426 683 483 q 750 293 750 369 q 653 66 750 150 q 396 -18 557 -18 m 397 399 q 316 369 346 399 q 286 297 286 340 q 315 225 286 253 q 397 197 344 197 q 480 224 451 197 q 508 297 508 251 q 479 369 508 340 q 397 399 450 399 m 397 778 q 327 753 351 778 q 303 692 303 729 q 328 627 303 650 q 397 604 354 604 q 466 627 440 604 q 492 692 492 650 q 467 753 492 729 q 397 778 442 778 z "},"9":{"ha":792,"x_min":50,"x_max":742,"o":"m 93 43 l 183 236 q 310 204 238 204 q 401 222 363 204 q 456 266 439 239 q 481 315 474 293 q 488 356 488 338 q 336 315 432 315 q 130 400 210 315 q 50 642 50 485 q 144 892 50 794 q 388 990 238 990 q 663 874 583 990 q 742 540 742 758 q 731 375 742 451 q 690 224 719 299 q 615 98 660 150 q 495 14 569 46 q 326 -18 421 -18 q 93 43 193 -18 m 392 526 q 501 575 450 526 q 499 649 501 621 q 485 708 496 676 q 449 753 474 739 q 386 768 425 768 q 310 736 336 768 q 283 650 283 704 q 312 560 283 594 q 392 526 340 526 z "}," ":{"ha":272,"x_min":0,"x_max":0,"o":""},"!":{"ha":429,"x_min":76,"x_max":353,"o":"m 312 22 q 291 2 312 22 q 214 -18 271 -18 q 117 22 157 -18 q 76 119 76 63 q 117 217 76 176 q 214 258 157 258 q 312 217 271 258 q 353 119 353 176 q 312 22 353 63 m 338 972 l 319 293 l 110 293 l 92 972 l 338 972 z "},"\"":{"ha":565,"x_min":57,"x_max":510,"o":"m 57 972 l 242 972 l 235 615 l 64 615 l 57 972 m 325 972 l 510 972 l 503 615 l 332 615 l 325 972 z "},"#":{"ha":924,"x_min":33,"x_max":890,"o":"m 822 972 l 772 733 l 890 733 l 856 561 l 736 561 l 706 410 l 824 410 l 789 238 l 669 238 l 621 0 l 429 0 l 478 238 l 347 238 l 299 0 l 107 0 l 156 238 l 33 238 l 68 410 l 192 410 l 222 561 l 100 561 l 135 733 l 258 733 l 308 972 l 500 972 l 450 733 l 581 733 l 631 972 l 822 972 m 414 561 l 383 410 l 514 410 l 544 561 l 414 561 z "},"$":{"ha":735,"x_min":24,"x_max":694,"o":"m 307 -119 l 307 -15 q 189 19 242 -8 q 103 83 136 46 q 52 151 71 119 q 24 214 33 183 l 222 313 q 282 235 243 267 q 368 204 321 204 q 454 272 454 204 q 424 327 454 301 q 350 372 394 353 q 253 419 306 390 q 156 481 200 447 q 81 571 111 514 q 51 701 51 628 q 120 892 51 817 q 307 985 189 968 l 307 1064 l 444 1064 l 444 983 q 603 899 546 963 q 685 765 661 835 l 488 675 q 463 720 475 703 q 426 754 451 738 q 365 771 400 771 q 310 752 331 771 q 289 706 289 733 q 331 641 289 669 q 432 587 372 613 q 551 528 492 561 q 653 433 611 494 q 694 290 694 372 q 628 94 694 175 q 444 -10 561 14 l 444 -119 l 307 -119 z "},"%":{"ha":1150,"x_min":31,"x_max":1118,"o":"m 1053 972 l 319 0 l 97 0 l 831 972 l 1053 972 m 794 222 q 816 167 794 189 q 869 144 838 144 q 925 167 904 144 q 946 222 946 189 q 924 276 946 254 q 869 297 903 297 q 815 275 836 297 q 794 222 794 253 m 622 221 q 692 392 622 322 q 868 461 763 461 q 1047 392 976 461 q 1118 221 1118 322 q 1047 51 1118 119 q 869 -18 976 -18 q 692 50 761 -18 q 622 221 622 118 m 203 751 q 224 696 203 718 q 278 674 246 674 q 333 696 313 674 q 354 751 354 718 q 333 805 354 783 q 278 826 311 826 q 224 804 244 826 q 203 751 203 782 m 31 750 q 101 921 31 851 q 276 990 171 990 q 456 921 385 990 q 526 750 526 851 q 456 580 526 649 q 278 511 385 511 q 100 579 169 511 q 31 750 31 647 z "},"&":{"ha":929,"x_min":31,"x_max":904,"o":"m 750 -36 l 656 64 q 401 -18 553 -18 q 129 66 228 -18 q 31 285 31 150 q 70 439 31 374 q 189 561 110 504 q 122 735 122 650 q 202 919 122 847 q 414 990 282 990 q 633 917 554 990 q 711 729 711 844 q 553 476 711 579 l 653 379 q 668 467 668 414 l 883 467 q 810 211 883 321 l 904 108 l 750 -36 m 406 190 q 506 226 472 190 l 325 411 q 265 306 265 378 q 307 220 265 250 q 406 190 349 190 m 333 722 q 418 597 333 665 q 506 722 506 657 q 482 782 506 758 q 418 806 458 806 q 358 782 382 806 q 333 722 333 758 z "},"'":{"ha":299,"x_min":57,"x_max":242,"o":"m 57 972 l 242 972 l 235 615 l 64 615 l 57 972 z "},"(":{"ha":486,"x_min":49,"x_max":400,"o":"m 49 78 l 49 817 q 135 1054 49 971 q 400 1138 222 1138 l 400 938 q 278 821 278 938 l 278 74 q 400 -43 278 -43 l 400 -243 q 49 78 49 -243 z "},")":{"ha":486,"x_min":86,"x_max":438,"o":"m 438 817 l 438 78 q 86 -243 438 -243 l 86 -43 q 208 74 208 -43 l 208 821 q 86 938 208 938 l 86 1138 q 351 1054 264 1138 q 438 817 438 971 z "},"*":{"ha":607,"x_min":40,"x_max":565,"o":"m 40 776 l 117 906 l 226 846 l 226 972 l 379 972 l 379 846 l 489 906 l 564 776 l 456 717 l 565 658 l 489 528 l 379 589 l 379 461 l 226 461 l 226 589 l 117 528 l 40 657 l 150 717 l 40 776 z "},"+":{"ha":765,"x_min":49,"x_max":717,"o":"m 49 342 l 49 525 l 286 525 l 286 778 l 479 778 l 479 525 l 717 525 l 717 342 l 479 342 l 479 88 l 286 88 l 286 342 l 49 342 z "},",":{"ha":363,"x_min":43,"x_max":322,"o":"m 54 -135 q 117 -83 86 -117 q 153 -15 147 -50 q 72 35 101 -3 q 43 119 43 74 q 83 217 43 176 q 181 258 124 258 q 281 219 240 258 q 322 108 322 179 q 274 -87 322 4 q 144 -235 226 -179 l 54 -135 z "},"-":{"ha":535,"x_min":65,"x_max":468,"o":"m 65 321 l 65 529 l 468 529 l 468 321 l 65 321 z "},".":{"ha":363,"x_min":43,"x_max":319,"o":"m 278 22 q 258 2 278 22 q 181 -18 238 -18 q 83 22 124 -18 q 43 119 43 63 q 83 217 43 176 q 181 258 124 258 q 278 217 238 258 q 319 119 319 176 q 278 22 319 63 z "},"/":{"ha":647,"x_min":15,"x_max":632,"o":"m 632 1042 l 217 -150 l 15 -150 l 431 1042 l 632 1042 z "},":":{"ha":363,"x_min":43,"x_max":319,"o":"m 278 22 q 258 2 278 22 q 181 -18 238 -18 q 83 22 124 -18 q 43 119 43 63 q 83 217 43 176 q 181 258 124 258 q 278 217 238 258 q 319 119 319 176 q 278 22 319 63 m 278 493 q 258 473 278 493 q 181 453 238 453 q 83 493 124 453 q 43 590 43 533 q 83 688 43 647 q 181 729 124 729 q 278 688 238 729 q 319 590 319 647 q 278 493 319 533 z "},";":{"ha":363,"x_min":43,"x_max":322,"o":"m 278 493 q 258 473 278 493 q 181 453 238 453 q 83 493 124 453 q 43 590 43 533 q 83 688 43 647 q 181 729 124 729 q 278 688 238 729 q 319 590 319 647 q 278 493 319 533 m 54 -135 q 117 -83 86 -117 q 153 -15 147 -50 q 72 35 101 -3 q 43 119 43 74 q 83 217 43 176 q 181 258 124 258 q 281 219 240 258 q 322 108 322 179 q 274 -87 322 4 q 144 -235 226 -179 l 54 -135 z "},"<":{"ha":717,"x_min":64,"x_max":653,"o":"m 64 351 l 64 517 l 653 781 l 653 582 l 279 435 l 653 288 l 653 88 l 64 351 z "},"=":{"ha":765,"x_min":49,"x_max":717,"o":"m 49 475 l 49 658 l 717 658 l 717 475 l 49 475 m 49 196 l 49 379 l 717 379 l 717 196 l 49 196 z "},">":{"ha":717,"x_min":64,"x_max":653,"o":"m 653 517 l 653 351 l 64 88 l 64 288 l 438 435 l 64 582 l 64 781 l 653 517 z "},"?":{"ha":681,"x_min":33,"x_max":647,"o":"m 424 347 l 424 293 l 199 293 l 199 363 q 221 458 199 414 q 274 532 243 503 q 335 588 304 561 q 389 643 367 614 q 411 701 411 672 q 388 760 411 736 q 319 785 364 785 q 278 777 296 785 q 247 755 260 769 q 228 731 235 740 q 215 706 222 722 l 33 788 q 65 853 44 822 q 119 918 85 885 q 209 971 153 951 q 335 990 265 990 q 560 915 472 990 q 647 717 647 839 q 624 615 647 661 q 569 536 601 568 q 503 476 536 504 q 447 415 469 447 q 424 347 424 382 m 408 22 q 387 2 408 22 q 310 -18 367 -18 q 213 22 253 -18 q 172 119 172 63 q 213 217 172 176 q 310 258 253 258 q 408 217 367 258 q 449 119 449 176 q 408 22 449 63 z "},"@":{"ha":1267,"x_min":47,"x_max":1219,"o":"m 782 175 q 610 86 722 86 q 421 163 492 86 q 350 360 350 239 q 421 556 350 478 q 603 633 492 633 q 733 590 678 633 l 733 625 l 903 625 l 903 308 q 965 233 903 233 q 1033 283 1008 233 q 1057 422 1057 333 q 949 699 1057 606 q 643 793 840 793 q 335 673 451 793 q 218 367 218 553 q 338 60 218 174 q 663 -54 458 -54 q 926 18 804 -54 l 1001 -101 q 663 -201 860 -201 q 217 -46 386 -201 q 47 361 47 110 q 219 778 47 617 q 646 939 390 939 q 1065 798 910 939 q 1219 431 1219 657 q 1147 181 1219 274 q 951 88 1075 88 q 782 175 831 88 m 561 443 q 547 427 561 443 q 532 361 532 411 q 560 278 532 311 q 635 244 589 244 q 708 276 679 244 q 738 361 738 308 q 709 441 738 407 q 635 475 681 475 q 561 443 590 475 z "},"A":{"ha":939,"x_min":8,"x_max":931,"o":"m 622 218 l 317 218 l 247 0 l 8 0 l 344 972 l 594 972 l 931 0 l 692 0 l 622 218 m 561 413 l 469 721 l 378 413 l 561 413 z "},"B":{"ha":815,"x_min":86,"x_max":779,"o":"m 779 290 q 685 74 779 149 q 444 0 592 0 l 86 0 l 86 972 l 433 972 q 665 904 582 972 q 749 711 749 836 q 720 592 749 647 q 643 510 692 538 q 779 290 779 453 m 439 403 l 322 403 l 322 204 l 438 204 q 509 233 483 204 q 535 304 535 261 q 510 376 535 349 q 439 403 485 403 m 421 769 l 322 769 l 322 593 l 424 593 q 485 618 464 593 q 507 683 507 643 q 485 747 507 724 q 421 769 464 769 z "},"C":{"ha":875,"x_min":38,"x_max":839,"o":"m 551 -18 q 178 126 319 -18 q 38 488 38 269 q 182 847 38 703 q 551 990 326 990 q 835 908 714 990 l 768 700 q 560 768 667 768 q 358 688 432 768 q 285 488 285 607 q 358 286 285 368 q 560 204 432 204 q 772 272 671 204 l 839 64 q 551 -18 718 -18 z "},"D":{"ha":922,"x_min":86,"x_max":885,"o":"m 86 972 l 372 972 q 747 842 608 972 q 885 486 885 713 q 747 130 885 260 q 372 0 608 0 l 86 0 l 86 972 m 372 767 l 324 767 l 324 206 l 372 206 q 566 278 494 206 q 638 486 638 350 q 566 694 638 622 q 372 767 494 767 z "},"E":{"ha":674,"x_min":86,"x_max":615,"o":"m 615 0 l 86 0 l 86 972 l 604 972 l 604 760 l 324 760 l 324 597 l 563 597 l 563 386 l 324 386 l 324 213 l 615 213 l 615 0 z "},"F":{"ha":656,"x_min":86,"x_max":600,"o":"m 565 371 l 324 371 l 324 0 l 86 0 l 86 972 l 600 972 l 600 760 l 324 760 l 324 582 l 565 582 l 565 371 z "},"G":{"ha":1046,"x_min":39,"x_max":986,"o":"m 986 546 l 986 135 q 792 22 892 61 q 542 -18 693 -18 q 184 122 329 -18 q 39 489 39 261 q 181 846 39 701 q 547 990 324 990 q 943 821 807 990 l 793 665 q 706 735 768 699 q 558 771 643 771 q 358 692 432 771 q 285 493 285 614 q 363 281 285 361 q 558 201 440 201 q 692 222 638 201 q 765 261 746 242 l 765 347 l 597 347 l 597 546 l 986 546 z "},"H":{"ha":994,"x_min":86,"x_max":908,"o":"m 908 972 l 908 0 l 671 0 l 671 381 l 324 381 l 324 0 l 86 0 l 86 972 l 324 972 l 324 594 l 671 594 l 671 972 l 908 972 z "},"I":{"ha":410,"x_min":86,"x_max":324,"o":"m 324 972 l 324 0 l 86 0 l 86 972 l 324 972 z "},"J":{"ha":540,"x_min":26,"x_max":454,"o":"m 454 972 l 454 253 q 372 53 454 115 q 160 -8 290 -8 q 26 7 90 -8 l 54 217 q 129 210 92 210 q 194 234 172 210 q 217 297 217 258 l 217 972 l 454 972 z "},"K":{"ha":889,"x_min":86,"x_max":879,"o":"m 324 972 l 324 597 l 607 972 l 872 972 l 508 507 l 879 0 l 607 0 l 324 392 l 324 0 l 86 0 l 86 972 l 324 972 z "},"L":{"ha":636,"x_min":86,"x_max":615,"o":"m 615 0 l 86 0 l 86 972 l 324 972 l 324 213 l 615 213 l 615 0 z "},"M":{"ha":1268,"x_min":83,"x_max":1185,"o":"m 743 79 l 525 79 l 311 638 l 311 0 l 83 0 l 83 972 l 392 972 l 633 357 l 876 972 l 1185 972 l 1185 0 l 957 0 l 957 638 l 743 79 z "},"N":{"ha":997,"x_min":83,"x_max":914,"o":"m 678 0 l 317 596 l 317 0 l 83 0 l 83 972 l 325 972 l 681 369 l 681 972 l 914 972 l 914 0 l 678 0 z "},"O":{"ha":1094,"x_min":38,"x_max":1057,"o":"m 915 126 q 844 54 915 126 q 547 -18 774 -18 q 179 126 321 -18 q 38 488 38 269 q 179 847 38 703 q 547 990 321 990 q 915 847 774 990 q 1057 488 1057 703 q 915 126 1057 269 m 736 688 q 699 728 736 688 q 547 768 663 768 q 358 688 432 768 q 285 488 285 608 q 358 284 285 364 q 547 204 432 204 q 736 284 663 204 q 810 488 810 364 q 736 688 810 608 z "},"P":{"ha":776,"x_min":86,"x_max":750,"o":"m 750 658 q 665 428 750 517 q 438 340 579 340 l 324 340 l 324 0 l 86 0 l 86 972 l 436 972 q 667 888 583 972 q 750 658 750 803 m 404 768 l 324 768 l 324 544 l 401 544 q 480 576 453 544 q 507 658 507 607 q 480 738 507 708 q 404 768 453 768 z "},"Q":{"ha":1094,"x_min":38,"x_max":1071,"o":"m 547 -18 q 179 126 321 -18 q 38 488 38 269 q 179 847 38 703 q 547 990 321 990 q 915 847 774 990 q 1057 488 1057 703 q 985 215 1057 338 l 1071 140 l 931 -22 l 836 61 q 547 -18 711 -18 m 736 688 q 699 728 736 688 q 547 768 663 768 q 358 688 432 768 q 285 488 285 608 q 358 284 285 364 q 547 204 432 204 q 651 225 606 204 l 571 296 l 708 457 l 793 383 q 810 488 810 438 q 736 688 810 608 z "},"R":{"ha":840,"x_min":86,"x_max":832,"o":"m 743 674 q 708 522 743 590 q 608 417 674 453 l 832 0 l 569 0 l 396 360 l 324 360 l 324 0 l 86 0 l 86 972 l 403 972 q 743 674 743 972 m 383 768 l 324 768 l 324 558 l 394 558 q 472 587 443 558 q 500 665 500 615 q 383 768 500 768 z "},"S":{"ha":735,"x_min":24,"x_max":694,"o":"m 371 990 q 503 967 444 990 q 598 904 563 943 q 653 833 633 865 q 685 765 674 800 l 488 675 q 463 720 475 703 q 426 754 451 738 q 365 771 400 771 q 310 752 331 771 q 289 706 289 733 q 331 641 289 669 q 432 587 372 613 q 551 528 492 561 q 653 433 611 494 q 694 290 694 372 q 603 67 694 153 q 354 -18 511 -18 q 215 7 278 -18 q 115 72 153 32 q 56 146 78 111 q 24 214 35 181 l 222 313 q 282 235 243 267 q 368 204 321 204 q 454 272 454 204 q 424 327 454 301 q 350 372 394 353 q 253 419 306 390 q 156 481 200 447 q 81 571 111 514 q 51 701 51 628 q 139 911 51 832 q 371 990 226 990 z "},"T":{"ha":710,"x_min":26,"x_max":683,"o":"m 683 760 l 474 760 l 474 0 l 236 0 l 236 760 l 26 760 l 26 972 l 683 972 l 683 760 z "},"U":{"ha":978,"x_min":83,"x_max":894,"o":"m 489 -17 q 190 90 297 -17 q 83 374 83 196 l 83 972 l 321 972 l 321 374 q 366 249 321 294 q 490 203 411 203 q 613 249 569 203 q 657 375 657 294 l 657 972 l 894 972 l 894 375 q 786 92 894 200 q 489 -17 678 -17 z "},"V":{"ha":975,"x_min":7,"x_max":968,"o":"m 617 0 l 358 0 l 7 972 l 268 972 l 488 281 l 707 972 l 968 972 l 617 0 z "},"W":{"ha":1381,"x_min":11,"x_max":1369,"o":"m 847 0 l 690 611 l 533 0 l 264 0 l 11 972 l 265 972 l 413 288 l 583 972 l 797 972 l 968 288 l 1115 972 l 1369 972 l 1117 0 l 847 0 z "},"X":{"ha":911,"x_min":6,"x_max":900,"o":"m 289 972 l 453 675 l 617 972 l 896 972 l 592 490 l 900 0 l 636 0 l 453 313 l 269 0 l 6 0 l 314 490 l 10 972 l 289 972 z "},"Y":{"ha":847,"x_min":8,"x_max":839,"o":"m 542 0 l 306 0 l 306 439 l 8 972 l 275 972 l 424 654 l 576 972 l 839 972 l 542 439 l 542 0 z "},"Z":{"ha":844,"x_min":43,"x_max":797,"o":"m 797 0 l 43 0 l 43 151 l 474 763 l 54 763 l 54 972 l 793 972 l 793 822 l 358 210 l 797 210 l 797 0 z "},"[":{"ha":486,"x_min":49,"x_max":400,"o":"m 49 -243 l 49 1138 l 400 1138 l 400 938 l 278 938 l 278 -43 l 400 -43 l 400 -243 l 49 -243 z "},"\\":{"ha":647,"x_min":15,"x_max":632,"o":"m 431 -150 l 15 1042 l 217 1042 l 632 -150 l 431 -150 z "},"]":{"ha":486,"x_min":86,"x_max":438,"o":"m 438 1138 l 438 -243 l 86 -243 l 86 -43 l 208 -43 l 208 938 l 86 938 l 86 1138 l 438 1138 z "},"^":{"ha":799,"x_min":50,"x_max":747,"o":"m 493 972 l 747 442 l 533 442 l 399 753 l 264 442 l 50 442 l 306 972 l 493 972 z "},"_":{"ha":858,"x_min":28,"x_max":831,"o":"m 28 -219 l 28 -40 l 831 -40 l 831 -219 l 28 -219 z "},"`":{"ha":667,"x_min":168,"x_max":500,"o":"m 168 1007 l 408 1007 l 500 806 l 307 806 l 168 1007 z "},"a":{"ha":742,"x_min":28,"x_max":683,"o":"m 28 226 q 105 402 28 336 q 311 468 182 468 q 451 442 389 468 l 451 468 q 423 525 451 503 q 340 547 394 547 q 157 501 251 547 l 71 657 q 368 747 207 747 q 614 669 544 747 q 683 451 683 590 l 683 0 l 476 0 l 464 40 q 299 -18 406 -18 q 106 47 185 -18 q 28 226 28 113 m 288 291 q 274 280 288 291 q 260 235 260 269 q 288 180 260 200 q 358 160 315 160 q 428 179 401 160 q 456 235 456 199 q 428 292 456 271 q 357 313 400 313 q 288 291 315 313 z "},"b":{"ha":868,"x_min":67,"x_max":838,"o":"m 292 363 q 334 235 292 286 q 449 185 376 185 q 563 233 519 185 q 606 363 606 282 q 563 493 606 443 q 449 543 519 543 q 335 495 378 543 q 292 363 292 447 m 283 57 l 283 0 l 67 0 l 67 1004 l 299 1004 l 299 674 q 369 722 318 697 q 493 747 421 747 q 744 641 650 747 q 838 364 838 535 q 738 89 838 196 q 481 -18 638 -18 q 358 7 410 -18 q 283 57 306 32 z "},"c":{"ha":665,"x_min":29,"x_max":640,"o":"m 440 186 q 578 238 515 186 l 639 47 q 425 -18 543 -18 q 140 89 251 -18 q 29 364 29 196 q 142 639 29 531 q 424 747 254 747 q 640 681 546 747 l 578 485 q 432 539 513 539 q 307 490 353 539 q 261 365 261 440 q 310 235 261 285 q 440 186 360 186 z "},"d":{"ha":868,"x_min":31,"x_max":801,"o":"m 576 363 q 533 495 576 447 q 419 543 490 543 q 306 493 349 543 q 263 363 263 443 q 306 233 263 282 q 419 185 349 185 q 534 235 492 185 q 576 363 576 286 m 585 0 l 585 57 q 510 7 563 32 q 388 -18 458 -18 q 131 89 231 -18 q 31 364 31 196 q 124 641 31 535 q 375 747 218 747 q 499 722 447 747 q 569 674 550 697 l 569 1004 l 801 1004 l 801 0 l 585 0 z "},"e":{"ha":774,"x_min":31,"x_max":747,"o":"m 746 304 l 268 304 q 316 219 272 254 q 422 183 360 183 q 519 209 479 183 q 575 261 558 235 l 728 143 q 622 37 703 92 q 418 -18 542 -18 q 136 90 242 -18 q 31 363 31 197 q 131 637 31 526 q 389 747 231 747 q 654 642 561 747 q 747 350 747 538 q 746 304 747 321 m 477 528 q 461 544 477 528 q 393 560 446 560 q 310 527 340 560 q 275 451 279 494 l 511 451 q 477 528 508 497 z "},"f":{"ha":475,"x_min":28,"x_max":464,"o":"m 336 744 l 336 729 l 450 729 l 450 542 l 336 542 l 336 0 l 104 0 l 104 542 l 28 542 l 28 729 l 104 729 l 104 750 q 185 946 104 885 q 393 1007 265 1007 q 464 1004 411 1007 l 464 810 q 426 813 447 813 q 336 744 336 813 z "},"g":{"ha":861,"x_min":29,"x_max":800,"o":"m 568 38 l 568 56 q 497 7 549 32 q 374 -18 446 -18 q 123 88 217 -18 q 29 365 29 194 q 129 640 29 533 q 386 747 229 747 q 509 722 457 747 q 583 672 561 697 l 583 729 l 800 729 l 800 88 q 768 -81 800 -10 q 678 -191 736 -151 q 551 -249 621 -231 q 396 -267 482 -267 q 126 -204 249 -267 l 194 -26 q 396 -71 290 -71 q 568 38 568 -71 m 575 367 q 532 492 575 442 q 417 543 489 543 q 303 495 346 543 q 261 367 261 447 q 304 236 261 286 q 418 186 347 186 q 532 234 489 186 q 575 367 575 282 z "},"h":{"ha":790,"x_min":67,"x_max":729,"o":"m 497 0 l 497 435 q 471 512 497 485 q 401 539 444 539 q 326 509 354 539 q 299 435 299 479 l 299 0 l 67 0 l 67 1004 l 299 1004 l 299 654 q 370 719 324 692 q 479 747 417 747 q 592 725 544 747 q 666 670 640 703 q 706 588 692 638 q 725 498 721 539 q 729 404 729 457 l 729 0 l 497 0 z "},"i":{"ha":365,"x_min":51,"x_max":311,"o":"m 299 729 l 299 0 l 67 0 l 67 729 l 299 729 m 274 809 q 255 791 274 809 q 181 774 236 774 q 88 809 125 774 q 51 899 51 844 q 88 990 51 954 q 181 1025 125 1025 q 274 989 236 1025 q 311 899 311 953 q 274 809 311 844 z "},"j":{"ha":365,"x_min":-58,"x_max":311,"o":"m 299 729 l 299 -3 q -7 -267 299 -267 l -58 -262 l -58 -67 q -25 -69 -40 -69 q 67 8 67 -69 l 67 729 l 299 729 m 274 809 q 255 791 274 809 q 181 774 236 774 q 88 809 125 774 q 51 899 51 844 q 88 990 51 954 q 181 1025 125 1025 q 274 989 236 1025 q 311 899 311 953 q 274 809 311 844 z "},"k":{"ha":776,"x_min":67,"x_max":775,"o":"m 756 729 l 521 396 l 775 0 l 503 0 l 299 340 l 299 0 l 67 0 l 67 1004 l 299 1004 l 299 436 l 496 729 l 756 729 z "},"l":{"ha":365,"x_min":67,"x_max":299,"o":"m 67 0 l 67 1004 l 299 1004 l 299 0 l 67 0 z "},"m":{"ha":1178,"x_min":67,"x_max":1117,"o":"m 707 435 l 707 0 l 475 0 l 475 435 q 452 511 475 483 q 388 539 429 539 q 322 512 346 539 q 299 435 299 485 l 299 0 l 67 0 l 67 729 l 293 729 l 293 654 q 474 747 346 747 q 663 651 600 747 q 869 747 738 747 q 1054 676 992 747 q 1117 485 1117 606 l 1117 0 l 885 0 l 885 435 q 861 511 885 483 q 796 539 838 539 q 731 510 756 539 q 707 435 707 482 z "},"n":{"ha":788,"x_min":67,"x_max":726,"o":"m 494 0 l 494 435 q 468 512 494 485 q 399 539 442 539 q 325 510 351 539 q 299 435 299 481 l 299 0 l 67 0 l 67 729 l 293 729 l 293 654 q 365 719 317 692 q 476 747 414 747 q 590 725 542 747 q 663 670 638 703 q 703 588 689 638 q 722 498 718 539 q 726 404 726 457 l 726 0 l 494 0 z "},"o":{"ha":854,"x_min":29,"x_max":825,"o":"m 140 90 q 85 143 140 90 q 29 363 29 197 q 142 638 29 528 q 425 747 256 747 q 713 640 600 747 q 825 365 825 532 q 711 91 825 200 q 425 -18 597 -18 q 140 90 251 -18 m 261 363 q 308 235 261 283 q 425 186 354 186 q 545 237 497 186 q 593 365 593 288 q 545 494 593 444 q 425 543 497 543 q 307 493 353 543 q 261 363 261 443 z "},"p":{"ha":868,"x_min":67,"x_max":838,"o":"m 292 367 q 335 234 292 282 q 449 186 378 186 q 563 236 519 186 q 606 367 606 286 q 563 496 606 447 q 449 544 519 544 q 334 494 376 544 q 292 367 292 443 m 283 729 l 283 672 q 358 722 306 697 q 481 747 410 747 q 738 640 638 747 q 838 365 838 533 q 744 88 838 194 q 493 -18 650 -18 q 369 7 421 -18 q 299 56 318 32 l 299 -260 l 67 -260 l 67 729 l 283 729 z "},"q":{"ha":868,"x_min":31,"x_max":801,"o":"m 576 367 q 534 494 576 443 q 419 544 492 544 q 306 496 349 544 q 263 367 263 447 q 306 236 263 286 q 419 186 349 186 q 533 234 490 186 q 576 367 576 282 m 585 672 l 585 729 l 801 729 l 801 -260 l 569 -260 l 569 56 q 499 7 550 32 q 375 -18 447 -18 q 124 88 218 -18 q 31 365 31 194 q 131 640 31 533 q 388 747 231 747 q 510 722 458 747 q 585 672 563 697 z "},"r":{"ha":513,"x_min":67,"x_max":486,"o":"m 486 747 l 486 511 q 449 514 467 514 q 299 322 299 514 l 299 0 l 67 0 l 67 729 l 293 729 l 293 632 q 486 747 350 747 z "},"s":{"ha":617,"x_min":19,"x_max":597,"o":"m 300 -18 q 131 19 204 -18 q 19 107 57 57 l 150 233 q 311 169 222 169 q 376 210 376 169 q 351 244 376 229 q 290 269 326 258 q 210 298 253 279 q 130 342 167 317 q 68 413 93 367 q 43 522 43 460 q 122 686 43 625 q 324 747 201 747 q 585 622 493 747 l 435 504 q 314 561 378 561 q 261 525 261 561 q 296 484 261 500 q 380 453 331 468 q 478 417 429 439 q 563 345 528 394 q 597 222 597 296 q 513 47 597 113 q 300 -18 428 -18 z "},"t":{"ha":489,"x_min":15,"x_max":447,"o":"m 318 883 l 318 729 l 442 729 l 442 542 l 318 542 l 318 274 q 408 194 318 194 q 447 196 432 194 l 447 -3 q 358 -11 417 -11 q 155 58 224 -11 q 86 285 86 128 l 86 542 l 15 542 l 15 729 l 86 729 l 86 883 l 318 883 z "},"u":{"ha":782,"x_min":61,"x_max":721,"o":"m 293 729 l 293 294 q 319 217 293 244 q 389 190 346 190 q 463 219 436 190 q 489 294 489 249 l 489 729 l 721 729 l 721 0 l 494 0 l 494 75 q 422 10 471 38 q 311 -18 374 -18 q 198 4 246 -18 q 124 59 150 26 q 84 141 99 92 q 65 231 69 190 q 61 325 61 272 l 61 729 l 293 729 z "},"v":{"ha":775,"x_min":4,"x_max":769,"o":"m 253 729 l 390 246 l 528 729 l 769 729 l 524 0 l 254 0 l 4 729 l 253 729 z "},"w":{"ha":1158,"x_min":10,"x_max":1149,"o":"m 683 0 l 579 413 l 475 0 l 214 0 l 10 729 l 263 729 l 361 253 l 471 729 l 688 729 l 797 253 l 896 729 l 1149 729 l 944 0 l 683 0 z "},"x":{"ha":758,"x_min":3,"x_max":756,"o":"m 507 0 l 379 196 l 251 0 l 3 0 l 251 369 l 10 729 l 268 729 l 379 533 l 490 729 l 749 729 l 507 369 l 756 0 l 507 0 z "},"y":{"ha":772,"x_min":8,"x_max":763,"o":"m 763 729 l 401 -249 l 182 -249 l 281 24 l 8 729 l 257 729 l 386 310 l 521 729 l 763 729 z "},"z":{"ha":654,"x_min":38,"x_max":615,"o":"m 613 589 l 328 193 l 615 193 l 615 0 l 38 0 l 38 139 l 321 536 l 44 536 l 44 729 l 613 729 l 613 589 z "},"{":{"ha":572,"x_min":35,"x_max":486,"o":"m 244 447 q 322 394 279 440 q 364 267 364 349 l 364 74 q 486 -43 364 -43 l 486 -243 q 222 -160 308 -243 q 135 78 135 -76 l 135 222 q 104 313 135 288 q 35 338 74 338 l 35 557 q 104 582 74 557 q 135 672 135 607 l 135 817 q 222 1054 135 971 q 486 1138 308 1138 l 486 938 q 364 821 364 938 l 364 628 q 322 500 364 546 q 244 447 279 454 z "},"|":{"ha":413,"x_min":97,"x_max":315,"o":"m 315 1174 l 315 -347 l 97 -347 l 97 1174 l 315 1174 z "},"}":{"ha":572,"x_min":86,"x_max":538,"o":"m 328 447 q 251 500 293 454 q 208 628 208 546 l 208 821 q 86 938 208 938 l 86 1138 q 351 1054 264 1138 q 438 817 438 971 l 438 672 q 468 582 438 607 q 538 557 499 557 l 538 338 q 468 313 499 338 q 438 222 438 288 l 438 78 q 351 -160 438 -76 q 86 -243 264 -243 l 86 -43 q 208 74 208 -43 l 208 267 q 251 394 208 349 q 328 447 293 440 z "},"~":{"ha":765,"x_min":42,"x_max":722,"o":"m 503 289 q 381 318 457 289 q 276 347 304 347 q 235 331 250 347 q 219 288 219 315 l 42 288 q 101 484 42 410 q 261 558 161 558 q 384 529 311 558 q 488 500 457 500 q 529 516 514 500 q 544 560 544 532 l 722 560 q 663 363 722 438 q 503 289 603 289 z "},"¡":{"ha":429,"x_min":76,"x_max":353,"o":"m 117 738 q 137 758 117 738 q 214 778 157 778 q 312 738 271 778 q 353 640 353 697 q 312 542 353 583 q 214 501 271 501 q 117 542 157 501 q 76 640 76 583 q 117 738 76 697 m 319 467 l 338 -212 l 92 -212 l 110 467 l 319 467 z "},"¢":{"ha":665,"x_min":29,"x_max":640,"o":"m 360 0 l 360 92 q 120 214 211 111 q 29 468 29 317 q 122 722 29 618 q 360 846 214 826 l 360 972 l 497 972 l 497 844 q 640 785 576 829 l 578 589 q 432 643 513 643 q 307 594 353 643 q 261 469 261 544 q 310 340 261 389 q 440 290 360 290 q 578 342 515 290 l 639 151 q 497 93 576 108 l 497 0 l 360 0 z "},"£":{"ha":808,"x_min":46,"x_max":763,"o":"m 356 675 l 356 565 l 563 565 l 563 390 l 356 390 l 356 207 l 763 207 l 763 0 l 46 0 l 46 207 l 121 207 l 121 390 l 54 390 l 54 565 l 121 565 l 121 688 q 208 906 121 822 q 444 990 294 990 q 642 923 571 990 q 738 775 714 856 l 546 693 q 447 771 522 771 q 381 744 406 771 q 356 675 356 718 z "},"¥":{"ha":847,"x_min":8,"x_max":839,"o":"m 542 0 l 306 0 l 306 206 l 103 206 l 103 354 l 306 354 l 306 440 l 103 440 l 103 589 l 222 589 l 8 972 l 275 972 l 424 654 l 576 972 l 839 972 l 625 589 l 744 589 l 744 440 l 542 440 l 542 354 l 744 354 l 744 206 l 542 206 l 542 0 z "},"§":{"ha":733,"x_min":43,"x_max":689,"o":"m 688 329 q 571 149 688 210 q 676 -50 676 63 q 594 -243 676 -169 q 372 -317 511 -317 q 239 -292 300 -317 q 139 -231 178 -268 q 77 -158 100 -193 q 43 -92 54 -124 l 238 -7 q 290 -74 254 -44 q 372 -103 326 -103 q 420 -88 401 -103 q 439 -47 439 -74 q 420 -1 439 -21 q 360 44 401 19 l 197 142 q 44 372 44 232 q 161 553 44 492 q 56 751 56 639 q 138 944 56 871 q 360 1018 221 1018 q 493 994 432 1018 q 593 932 554 969 q 655 860 632 894 q 689 793 678 825 l 494 708 q 442 775 478 746 q 360 804 406 804 q 312 790 331 804 q 293 749 293 775 q 312 702 293 722 q 372 657 331 682 l 535 560 q 688 329 688 469 m 471 325 q 438 378 471 360 l 331 435 q 279 418 297 435 q 261 376 261 401 q 294 324 261 342 l 401 267 q 453 283 435 267 q 471 325 471 300 z "},"¨":{"ha":667,"x_min":86,"x_max":579,"o":"m 193 800 q 116 831 146 800 q 86 907 86 863 q 116 983 86 951 q 193 1014 146 1014 q 269 983 239 1014 q 300 907 300 951 q 269 831 300 863 q 193 800 239 800 m 472 800 q 395 831 425 800 q 365 907 365 863 q 395 983 365 951 q 472 1014 425 1014 q 549 983 518 1014 q 579 907 579 951 q 549 831 579 863 q 472 800 518 800 z "},"©":{"ha":1089,"x_min":44,"x_max":1044,"o":"m 290 219 q 339 166 290 219 q 544 114 388 114 q 799 219 701 114 q 897 488 897 324 q 799 753 897 649 q 544 857 701 857 q 290 753 388 857 q 192 488 192 649 q 290 219 192 324 m 367 296 q 332 334 367 296 q 296 486 296 372 q 367 676 296 600 q 549 753 439 753 q 753 643 682 753 l 632 549 q 550 597 600 597 q 488 567 511 597 q 465 486 465 536 q 488 406 465 436 q 550 375 511 375 q 632 424 600 375 l 753 329 q 549 219 682 219 q 367 296 439 219 m 187 844 q 258 917 187 844 q 544 990 329 990 q 902 844 760 990 q 1044 483 1044 699 q 902 126 1044 271 q 544 -19 760 -19 q 187 126 329 -19 q 44 483 44 271 q 187 844 44 699 z "},"ª":{"ha":574,"x_min":40,"x_max":532,"o":"m 40 600 q 98 731 40 682 q 253 781 156 781 q 358 761 311 781 l 358 781 q 337 824 358 807 q 275 840 315 840 q 138 806 207 840 l 72 922 q 296 990 174 990 q 479 931 426 990 q 532 768 532 872 l 532 431 l 376 431 l 367 460 q 243 417 324 417 q 99 465 158 417 q 40 600 40 514 m 235 648 q 224 640 235 648 q 214 606 214 632 q 235 565 214 579 q 288 550 256 550 q 340 565 319 550 q 361 606 361 579 q 340 649 361 633 q 288 664 319 664 q 235 648 256 664 z "},"«":{"ha":724,"x_min":35,"x_max":689,"o":"m 407 147 l 203 147 l 35 411 l 203 675 l 407 675 l 238 411 l 407 147 m 689 147 l 486 147 l 317 411 l 486 675 l 689 675 l 519 411 l 689 147 z "},"®":{"ha":628,"x_min":19,"x_max":607,"o":"m 308 693 l 285 693 l 285 593 l 194 593 l 194 893 l 331 893 q 408 866 381 893 q 436 794 436 839 q 389 710 436 729 l 444 593 l 351 593 l 308 693 m 317 818 l 285 818 l 285 764 l 317 764 q 343 792 343 764 q 317 818 343 818 m 19 740 q 101 947 19 864 q 310 1031 182 1031 q 525 949 443 1031 q 607 742 607 867 q 526 535 607 619 q 313 451 444 451 q 100 533 181 451 q 19 740 19 615 m 103 740 q 160 588 103 647 q 313 528 217 528 q 466 588 410 528 q 522 742 522 647 q 465 894 522 836 q 310 953 408 953 q 160 894 217 953 q 103 740 103 835 z "},"¯":{"ha":614,"x_min":111,"x_max":501,"o":"m 111 821 l 111 986 l 501 986 l 501 821 l 111 821 z "},"°":{"ha":542,"x_min":32,"x_max":510,"o":"m 442 593 q 408 560 442 593 q 271 526 374 526 q 100 593 168 526 q 32 757 32 660 q 100 922 32 854 q 271 990 168 990 q 442 922 374 990 q 510 757 510 854 q 442 593 510 660 m 328 814 q 317 825 328 814 q 271 836 307 836 q 214 814 235 836 q 193 758 193 792 q 214 703 193 725 q 271 681 235 681 q 328 703 307 681 q 349 758 349 725 q 328 814 349 792 z "},"²":{"ha":514,"x_min":38,"x_max":476,"o":"m 476 418 l 44 418 l 44 489 q 70 575 44 535 q 133 643 96 615 q 206 695 169 671 q 267 743 242 719 q 293 788 293 767 q 280 819 293 807 q 244 832 267 832 q 174 774 200 832 l 38 822 q 106 933 53 882 q 251 983 158 983 q 407 934 344 983 q 469 794 469 885 q 440 707 469 747 q 375 645 411 667 q 301 599 339 624 q 254 558 264 575 l 476 558 l 476 418 z "},"³":{"ha":508,"x_min":38,"x_max":469,"o":"m 63 972 l 450 972 l 450 864 l 336 756 q 433 706 396 749 q 469 596 469 664 q 407 456 469 506 q 251 407 344 407 q 106 458 158 407 q 38 568 53 508 l 174 617 q 244 558 200 558 q 282 572 268 558 q 296 607 296 585 q 233 657 296 657 l 165 657 l 165 764 l 235 833 l 63 833 l 63 972 z "},"´":{"ha":667,"x_min":167,"x_max":499,"o":"m 258 1007 l 499 1007 l 360 806 l 167 806 l 258 1007 z "},"¶":{"ha":786,"x_min":46,"x_max":739,"o":"m 483 -62 l 307 -62 l 307 444 q 122 522 197 446 q 46 710 46 597 q 122 898 46 824 q 313 972 197 972 l 483 972 l 483 -62 m 739 972 l 739 -62 l 563 -62 l 563 972 l 739 972 z "},"·":{"ha":363,"x_min":43,"x_max":319,"o":"m 278 339 q 258 319 278 339 q 181 299 238 299 q 83 339 124 299 q 43 436 43 379 q 83 534 43 493 q 181 575 124 575 q 278 534 238 575 q 319 436 319 493 q 278 339 319 379 z "},"¸":{"ha":614,"x_min":161,"x_max":432,"o":"m 253 -329 q 161 -312 208 -329 l 189 -201 q 236 -208 217 -208 q 273 -198 258 -208 q 288 -169 288 -187 q 225 -133 288 -133 l 200 -135 l 225 18 l 339 18 l 329 -49 q 432 -181 432 -72 q 383 -292 432 -254 q 253 -329 333 -329 z "},"¹":{"ha":419,"x_min":54,"x_max":321,"o":"m 321 972 l 321 418 l 150 418 l 150 804 l 96 786 l 54 931 l 179 972 l 321 972 z "},"º":{"ha":676,"x_min":40,"x_max":636,"o":"m 40 701 q 125 908 40 826 q 338 990 210 990 q 553 910 469 990 q 636 704 636 829 q 551 499 636 581 q 338 417 467 417 q 124 497 207 417 q 40 701 40 578 m 215 701 q 249 607 215 643 q 338 571 283 571 q 427 608 392 571 q 463 704 463 646 q 426 799 463 763 q 338 836 390 836 q 249 799 283 836 q 215 701 215 761 z "},"»":{"ha":724,"x_min":35,"x_max":689,"o":"m 521 147 l 317 147 l 486 411 l 317 675 l 521 675 l 689 411 l 521 147 m 238 147 l 35 147 l 204 411 l 35 675 l 238 675 l 407 411 l 238 147 z "},"¼":{"ha":1185,"x_min":54,"x_max":1147,"o":"m 928 1029 l 417 -57 l 221 -57 l 731 1029 l 928 1029 m 1147 97 l 1085 97 l 1085 0 l 919 0 l 919 97 l 665 97 l 665 224 l 900 554 l 1085 554 l 1085 242 l 1147 242 l 1147 97 m 919 389 l 821 242 l 919 242 l 919 389 m 321 972 l 321 418 l 150 418 l 150 804 l 96 786 l 54 931 l 179 972 l 321 972 z "},"½":{"ha":1201,"x_min":54,"x_max":1147,"o":"m 911 1029 l 400 -57 l 204 -57 l 714 1029 l 911 1029 m 321 972 l 321 418 l 150 418 l 150 804 l 96 786 l 54 931 l 179 972 l 321 972 m 1147 0 l 715 0 l 715 71 q 741 157 715 117 q 803 225 767 197 q 876 277 839 253 q 938 325 913 301 q 964 369 964 349 q 951 401 964 389 q 915 414 938 414 q 844 356 871 414 l 708 404 q 776 515 724 464 q 922 565 829 565 q 1078 516 1015 565 q 1140 376 1140 467 q 1111 289 1140 329 q 1046 227 1082 249 q 972 181 1010 206 q 925 140 935 157 l 1147 140 l 1147 0 z "},"¾":{"ha":1240,"x_min":38,"x_max":1197,"o":"m 63 972 l 450 972 l 450 864 l 336 756 q 433 706 396 749 q 469 596 469 664 q 407 456 469 506 q 251 407 344 407 q 106 458 158 407 q 38 568 53 508 l 174 617 q 244 558 200 558 q 282 572 268 558 q 296 607 296 585 q 233 657 296 657 l 165 657 l 165 764 l 235 833 l 63 833 l 63 972 m 986 1029 l 475 -57 l 279 -57 l 789 1029 l 986 1029 m 1197 97 l 1135 97 l 1135 0 l 969 0 l 969 97 l 715 97 l 715 224 l 950 554 l 1135 554 l 1135 242 l 1197 242 l 1197 97 m 969 389 l 871 242 l 969 242 l 969 389 z "},"¿":{"ha":681,"x_min":33,"x_max":647,"o":"m 257 413 l 257 467 l 482 467 l 482 397 q 460 301 482 346 q 406 228 438 257 q 344 172 375 199 q 292 117 314 146 q 269 58 269 88 q 293 -1 269 24 q 361 -25 317 -25 q 403 -17 385 -25 q 433 5 421 -10 q 452 28 446 19 q 465 54 458 38 l 647 -28 q 616 -94 636 -62 q 562 -158 596 -125 q 472 -211 528 -192 q 346 -231 415 -231 q 121 -155 208 -231 q 33 43 33 -79 q 56 145 33 99 q 112 224 79 192 q 178 284 144 256 q 234 345 211 313 q 257 413 257 378 m 273 738 q 293 758 273 738 q 371 778 314 778 q 468 738 428 778 q 508 640 508 697 q 468 542 508 583 q 371 501 428 501 q 273 542 314 501 q 232 640 232 583 q 273 738 232 697 z "},"À":{"ha":939,"x_min":8,"x_max":931,"o":"m 622 218 l 317 218 l 247 0 l 8 0 l 344 972 l 594 972 l 931 0 l 692 0 l 622 218 m 561 413 l 469 721 l 378 413 l 561 413 m 243 1222 l 483 1222 l 575 1021 l 382 1021 l 243 1222 z "},"Á":{"ha":939,"x_min":8,"x_max":931,"o":"m 622 218 l 317 218 l 247 0 l 8 0 l 344 972 l 594 972 l 931 0 l 692 0 l 622 218 m 561 413 l 469 721 l 378 413 l 561 413 m 446 1222 l 686 1222 l 547 1021 l 354 1021 l 446 1222 z "},"Â":{"ha":939,"x_min":8,"x_max":931,"o":"m 622 218 l 317 218 l 247 0 l 8 0 l 344 972 l 594 972 l 931 0 l 692 0 l 622 218 m 561 413 l 469 721 l 378 413 l 561 413 m 354 1222 l 588 1222 l 721 1021 l 529 1021 l 472 1111 l 414 1021 l 221 1021 l 354 1222 z "},"Ã":{"ha":939,"x_min":8,"x_max":931,"o":"m 622 218 l 317 218 l 247 0 l 8 0 l 344 972 l 594 972 l 931 0 l 692 0 l 622 218 m 561 413 l 469 721 l 378 413 l 561 413 m 567 1024 q 469 1047 525 1024 q 394 1069 413 1069 q 353 1022 353 1069 l 211 1022 q 256 1171 211 1114 q 375 1228 301 1228 q 474 1205 419 1228 q 546 1182 529 1182 q 586 1229 586 1182 l 728 1229 q 684 1079 728 1135 q 567 1024 640 1024 z "},"Ä":{"ha":939,"x_min":8,"x_max":931,"o":"m 622 218 l 317 218 l 247 0 l 8 0 l 344 972 l 594 972 l 931 0 l 692 0 l 622 218 m 561 413 l 469 721 l 378 413 l 561 413 m 329 1022 q 252 1053 282 1022 q 222 1129 222 1085 q 252 1205 222 1174 q 329 1236 282 1236 q 406 1205 375 1236 q 436 1129 436 1174 q 406 1053 436 1085 q 329 1022 375 1022 m 608 1022 q 531 1053 561 1022 q 501 1129 501 1085 q 531 1205 501 1174 q 608 1236 561 1236 q 685 1205 654 1236 q 715 1129 715 1174 q 685 1053 715 1085 q 608 1022 654 1022 z "},"Å":{"ha":939,"x_min":8,"x_max":931,"o":"m 622 218 l 317 218 l 247 0 l 8 0 l 344 972 l 594 972 l 931 0 l 692 0 l 622 218 m 561 413 l 469 721 l 378 413 l 561 413 m 468 1011 q 354 1052 400 1011 q 308 1157 308 1093 q 354 1263 308 1222 q 468 1304 400 1304 q 583 1263 538 1304 q 629 1158 629 1222 q 583 1052 629 1093 q 468 1011 538 1011 m 433 1120 q 440 1113 433 1120 q 469 1106 447 1106 q 506 1120 492 1106 q 519 1158 519 1135 q 506 1195 519 1181 q 469 1210 492 1210 q 433 1196 447 1210 q 419 1158 419 1182 q 433 1120 419 1135 z "},"Æ":{"ha":1224,"x_min":11,"x_max":1165,"o":"m 1165 0 l 636 0 l 636 218 l 379 218 l 269 0 l 11 0 l 525 972 l 1154 972 l 1154 760 l 874 760 l 874 597 l 1113 597 l 1113 386 l 874 386 l 874 213 l 1165 213 l 1165 0 m 465 413 l 636 413 l 636 751 l 465 413 z "},"Ç":{"ha":875,"x_min":38,"x_max":839,"o":"m 451 -329 q 360 -312 407 -329 l 388 -201 q 435 -208 415 -208 q 472 -198 457 -208 q 486 -169 486 -187 q 424 -133 486 -133 l 399 -135 l 419 -4 q 140 168 243 33 q 38 488 38 303 q 182 847 38 703 q 551 990 326 990 q 835 908 714 990 l 768 700 q 560 768 667 768 q 358 688 432 768 q 285 488 285 607 q 358 286 285 368 q 560 204 432 204 q 772 272 671 204 l 839 64 q 551 -18 718 -18 l 532 -17 l 528 -49 q 631 -181 631 -72 q 581 -292 631 -254 q 451 -329 532 -329 z "},"È":{"ha":674,"x_min":86,"x_max":615,"o":"m 615 0 l 86 0 l 86 972 l 604 972 l 604 760 l 324 760 l 324 597 l 563 597 l 563 386 l 324 386 l 324 213 l 615 213 l 615 0 m 144 1222 l 385 1222 l 476 1021 l 283 1021 l 144 1222 z "},"É":{"ha":674,"x_min":86,"x_max":615,"o":"m 615 0 l 86 0 l 86 972 l 604 972 l 604 760 l 324 760 l 324 597 l 563 597 l 563 386 l 324 386 l 324 213 l 615 213 l 615 0 m 321 1222 l 561 1222 l 422 1021 l 229 1021 l 321 1222 z "},"Ê":{"ha":674,"x_min":86,"x_max":615,"o":"m 615 0 l 86 0 l 86 972 l 604 972 l 604 760 l 324 760 l 324 597 l 563 597 l 563 386 l 324 386 l 324 213 l 615 213 l 615 0 m 231 1222 l 464 1222 l 597 1021 l 406 1021 l 349 1111 l 290 1021 l 97 1021 l 231 1222 z "},"Ë":{"ha":674,"x_min":86,"x_max":615,"o":"m 615 0 l 86 0 l 86 972 l 604 972 l 604 760 l 324 760 l 324 597 l 563 597 l 563 386 l 324 386 l 324 213 l 615 213 l 615 0 m 204 1022 q 127 1053 157 1022 q 97 1129 97 1085 q 127 1205 97 1174 q 204 1236 157 1236 q 281 1205 250 1236 q 311 1129 311 1174 q 281 1053 311 1085 q 204 1022 250 1022 m 483 1022 q 406 1053 436 1022 q 376 1129 376 1085 q 406 1205 376 1174 q 483 1236 436 1236 q 560 1205 529 1236 q 590 1129 590 1174 q 560 1053 590 1085 q 483 1022 529 1022 z "},"Ì":{"ha":410,"x_min":1,"x_max":333,"o":"m 324 972 l 324 0 l 86 0 l 86 972 l 324 972 m 1 1222 l 242 1222 l 333 1021 l 140 1021 l 1 1222 z "},"Í":{"ha":410,"x_min":86,"x_max":422,"o":"m 324 972 l 324 0 l 86 0 l 86 972 l 324 972 m 182 1222 l 422 1222 l 283 1021 l 90 1021 l 182 1222 z "},"Î":{"ha":410,"x_min":-44,"x_max":456,"o":"m 324 972 l 324 0 l 86 0 l 86 972 l 324 972 m 89 1222 l 322 1222 l 456 1021 l 264 1021 l 207 1111 l 149 1021 l -44 1021 l 89 1222 z "},"Ï":{"ha":410,"x_min":-35,"x_max":458,"o":"m 324 972 l 324 0 l 86 0 l 86 972 l 324 972 m 72 1022 q -5 1053 25 1022 q -35 1129 -35 1085 q -5 1205 -35 1174 q 72 1236 25 1236 q 149 1205 118 1236 q 179 1129 179 1174 q 149 1053 179 1085 q 72 1022 118 1022 m 351 1022 q 274 1053 304 1022 q 244 1129 244 1085 q 274 1205 244 1174 q 351 1236 304 1236 q 428 1205 397 1236 q 458 1129 458 1174 q 428 1053 458 1085 q 351 1022 397 1022 z "},"Ð":{"ha":942,"x_min":31,"x_max":904,"o":"m 106 972 l 392 972 q 766 842 628 972 q 904 486 904 713 q 766 130 904 260 q 392 0 628 0 l 106 0 l 106 385 l 31 385 l 31 592 l 106 592 l 106 972 m 343 767 l 343 592 l 471 592 l 471 385 l 343 385 l 343 206 l 392 206 q 585 278 514 206 q 657 486 657 350 q 585 694 657 622 q 392 767 514 767 l 343 767 z "},"Ñ":{"ha":997,"x_min":83,"x_max":914,"o":"m 678 0 l 317 596 l 317 0 l 83 0 l 83 972 l 325 972 l 681 369 l 681 972 l 914 972 l 914 0 l 678 0 m 596 1024 q 498 1047 554 1024 q 424 1069 442 1069 q 382 1022 382 1069 l 240 1022 q 285 1171 240 1114 q 404 1228 331 1228 q 503 1205 449 1228 q 575 1182 558 1182 q 615 1229 615 1182 l 757 1229 q 713 1079 757 1135 q 596 1024 669 1024 z "},"Ò":{"ha":1094,"x_min":38,"x_max":1057,"o":"m 915 126 q 844 54 915 126 q 547 -18 774 -18 q 179 126 321 -18 q 38 488 38 269 q 179 847 38 703 q 547 990 321 990 q 915 847 774 990 q 1057 488 1057 703 q 915 126 1057 269 m 736 688 q 699 728 736 688 q 547 768 663 768 q 358 688 432 768 q 285 488 285 608 q 358 284 285 364 q 547 204 432 204 q 736 284 663 204 q 810 488 810 364 q 736 688 810 608 m 329 1222 l 569 1222 l 661 1021 l 468 1021 l 329 1222 z "},"Ó":{"ha":1094,"x_min":38,"x_max":1057,"o":"m 915 126 q 844 54 915 126 q 547 -18 774 -18 q 179 126 321 -18 q 38 488 38 269 q 179 847 38 703 q 547 990 321 990 q 915 847 774 990 q 1057 488 1057 703 q 915 126 1057 269 m 736 688 q 699 728 736 688 q 547 768 663 768 q 358 688 432 768 q 285 488 285 608 q 358 284 285 364 q 547 204 432 204 q 736 284 663 204 q 810 488 810 364 q 736 688 810 608 m 525 1222 l 765 1222 l 626 1021 l 433 1021 l 525 1222 z "},"Ô":{"ha":1094,"x_min":38,"x_max":1057,"o":"m 915 126 q 844 54 915 126 q 547 -18 774 -18 q 179 126 321 -18 q 38 488 38 269 q 179 847 38 703 q 547 990 321 990 q 915 847 774 990 q 1057 488 1057 703 q 915 126 1057 269 m 736 688 q 699 728 736 688 q 547 768 663 768 q 358 688 432 768 q 285 488 285 608 q 358 284 285 364 q 547 204 432 204 q 736 284 663 204 q 810 488 810 364 q 736 688 810 608 m 428 1222 l 661 1222 l 794 1021 l 603 1021 l 546 1111 l 488 1021 l 294 1021 l 428 1222 z "},"Õ":{"ha":1094,"x_min":38,"x_max":1057,"o":"m 915 126 q 844 54 915 126 q 547 -18 774 -18 q 179 126 321 -18 q 38 488 38 269 q 179 847 38 703 q 547 990 321 990 q 915 847 774 990 q 1057 488 1057 703 q 915 126 1057 269 m 736 688 q 699 728 736 688 q 547 768 663 768 q 358 688 432 768 q 285 488 285 608 q 358 284 285 364 q 547 204 432 204 q 736 284 663 204 q 810 488 810 364 q 736 688 810 608 m 644 1024 q 547 1047 603 1024 q 472 1069 490 1069 q 431 1022 431 1069 l 289 1022 q 334 1171 289 1114 q 453 1228 379 1228 q 552 1205 497 1228 q 624 1182 607 1182 q 664 1229 664 1182 l 806 1229 q 762 1079 806 1135 q 644 1024 718 1024 z "},"Ö":{"ha":1094,"x_min":38,"x_max":1057,"o":"m 915 126 q 844 54 915 126 q 547 -18 774 -18 q 179 126 321 -18 q 38 488 38 269 q 179 847 38 703 q 547 990 321 990 q 915 847 774 990 q 1057 488 1057 703 q 915 126 1057 269 m 736 688 q 699 728 736 688 q 547 768 663 768 q 358 688 432 768 q 285 488 285 608 q 358 284 285 364 q 547 204 432 204 q 736 284 663 204 q 810 488 810 364 q 736 688 810 608 m 407 1022 q 330 1053 360 1022 q 300 1129 300 1085 q 330 1205 300 1174 q 407 1236 360 1236 q 483 1205 453 1236 q 514 1129 514 1174 q 483 1053 514 1085 q 407 1022 453 1022 m 686 1022 q 609 1053 639 1022 q 579 1129 579 1085 q 609 1205 579 1174 q 686 1236 639 1236 q 763 1205 732 1236 q 793 1129 793 1174 q 763 1053 793 1085 q 686 1022 732 1022 z "},"×":{"ha":733,"x_min":38,"x_max":694,"o":"m 38 643 l 167 772 l 365 563 l 567 772 l 694 643 l 493 432 l 694 221 l 567 93 l 367 301 l 167 92 l 38 221 l 239 432 l 38 643 z "},"Ø":{"ha":1094,"x_min":38,"x_max":1057,"o":"m 547 -18 q 289 43 404 -18 l 225 -36 l 103 61 l 165 139 q 38 488 38 279 q 179 847 38 703 q 547 990 321 990 q 797 932 683 990 l 860 1010 l 982 913 l 922 838 q 1057 488 1057 696 q 915 126 1057 269 q 547 -18 774 -18 m 547 204 q 736 284 663 204 q 810 488 810 364 q 768 644 810 574 l 436 228 q 547 204 488 204 m 547 768 q 358 688 432 768 q 285 488 285 608 q 321 335 285 400 l 650 747 q 547 768 604 768 z "},"Ù":{"ha":978,"x_min":83,"x_max":894,"o":"m 489 -17 q 190 90 297 -17 q 83 374 83 196 l 83 972 l 321 972 l 321 374 q 366 249 321 294 q 490 203 411 203 q 613 249 569 203 q 657 375 657 294 l 657 972 l 894 972 l 894 375 q 786 92 894 200 q 489 -17 678 -17 m 271 1222 l 511 1222 l 603 1021 l 410 1021 l 271 1222 z "},"Ú":{"ha":978,"x_min":83,"x_max":894,"o":"m 489 -17 q 190 90 297 -17 q 83 374 83 196 l 83 972 l 321 972 l 321 374 q 366 249 321 294 q 490 203 411 203 q 613 249 569 203 q 657 375 657 294 l 657 972 l 894 972 l 894 375 q 786 92 894 200 q 489 -17 678 -17 m 472 1222 l 713 1222 l 574 1021 l 381 1021 l 472 1222 z "},"Û":{"ha":978,"x_min":83,"x_max":894,"o":"m 489 -17 q 190 90 297 -17 q 83 374 83 196 l 83 972 l 321 972 l 321 374 q 366 249 321 294 q 490 203 411 203 q 613 249 569 203 q 657 375 657 294 l 657 972 l 894 972 l 894 375 q 786 92 894 200 q 489 -17 678 -17 m 372 1222 l 606 1222 l 739 1021 l 547 1021 l 490 1111 l 432 1021 l 239 1021 l 372 1222 z "},"Ü":{"ha":978,"x_min":83,"x_max":894,"o":"m 489 -17 q 190 90 297 -17 q 83 374 83 196 l 83 972 l 321 972 l 321 374 q 366 249 321 294 q 490 203 411 203 q 613 249 569 203 q 657 375 657 294 l 657 972 l 894 972 l 894 375 q 786 92 894 200 q 489 -17 678 -17 m 353 1022 q 276 1053 306 1022 q 246 1129 246 1085 q 276 1205 246 1174 q 353 1236 306 1236 q 429 1205 399 1236 q 460 1129 460 1174 q 429 1053 460 1085 q 353 1022 399 1022 m 632 1022 q 555 1053 585 1022 q 525 1129 525 1085 q 555 1205 525 1174 q 632 1236 585 1236 q 708 1205 678 1236 q 739 1129 739 1174 q 708 1053 739 1085 q 632 1022 678 1022 z "},"Ý":{"ha":847,"x_min":8,"x_max":839,"o":"m 542 0 l 306 0 l 306 439 l 8 972 l 275 972 l 424 654 l 576 972 l 839 972 l 542 439 l 542 0 m 411 1222 l 651 1222 l 513 1021 l 319 1021 l 411 1222 z "},"Þ":{"ha":808,"x_min":86,"x_max":771,"o":"m 688 726 q 729 684 688 726 q 771 497 771 642 q 685 265 771 353 q 457 176 599 176 l 324 176 l 324 0 l 86 0 l 86 972 l 324 972 l 324 811 l 457 811 q 688 726 604 811 m 425 607 l 324 607 l 324 383 l 422 383 q 501 414 474 383 q 528 496 528 444 q 501 577 528 547 q 425 607 474 607 z "},"ß":{"ha":793,"x_min":67,"x_max":764,"o":"m 369 1007 q 610 945 525 1007 q 696 764 696 883 q 672 669 696 711 q 617 608 647 626 q 764 336 764 517 q 656 90 764 179 q 361 0 549 0 l 361 186 q 487 228 440 188 q 533 339 533 269 q 487 445 533 407 q 361 483 440 483 l 361 664 q 472 743 472 664 q 449 791 472 769 q 383 813 426 813 q 299 735 299 813 l 299 0 l 67 0 l 67 750 q 152 946 67 885 q 369 1007 238 1007 z "},"à":{"ha":742,"x_min":28,"x_max":683,"o":"m 28 226 q 105 402 28 336 q 311 468 182 468 q 451 442 389 468 l 451 468 q 423 525 451 503 q 340 547 394 547 q 157 501 251 547 l 71 657 q 368 747 207 747 q 614 669 544 747 q 683 451 683 590 l 683 0 l 476 0 l 464 40 q 299 -18 406 -18 q 106 47 185 -18 q 28 226 28 113 m 288 291 q 274 280 288 291 q 260 235 260 269 q 288 180 260 200 q 358 160 315 160 q 428 179 401 160 q 456 235 456 199 q 428 292 456 271 q 357 313 400 313 q 288 291 315 313 m 165 1007 l 406 1007 l 497 806 l 304 806 l 165 1007 z "},"á":{"ha":742,"x_min":28,"x_max":683,"o":"m 28 226 q 105 402 28 336 q 311 468 182 468 q 451 442 389 468 l 451 468 q 423 525 451 503 q 340 547 394 547 q 157 501 251 547 l 71 657 q 368 747 207 747 q 614 669 544 747 q 683 451 683 590 l 683 0 l 476 0 l 464 40 q 299 -18 406 -18 q 106 47 185 -18 q 28 226 28 113 m 288 291 q 274 280 288 291 q 260 235 260 269 q 288 180 260 200 q 358 160 315 160 q 428 179 401 160 q 456 235 456 199 q 428 292 456 271 q 357 313 400 313 q 288 291 315 313 m 354 1007 l 594 1007 l 456 806 l 263 806 l 354 1007 z "},"â":{"ha":742,"x_min":28,"x_max":683,"o":"m 28 226 q 105 402 28 336 q 311 468 182 468 q 451 442 389 468 l 451 468 q 423 525 451 503 q 340 547 394 547 q 157 501 251 547 l 71 657 q 368 747 207 747 q 614 669 544 747 q 683 451 683 590 l 683 0 l 476 0 l 464 40 q 299 -18 406 -18 q 106 47 185 -18 q 28 226 28 113 m 288 291 q 274 280 288 291 q 260 235 260 269 q 288 180 260 200 q 358 160 315 160 q 428 179 401 160 q 456 235 456 199 q 428 292 456 271 q 357 313 400 313 q 288 291 315 313 m 254 1007 l 488 1007 l 621 806 l 429 806 l 372 896 l 314 806 l 121 806 l 254 1007 z "},"ã":{"ha":742,"x_min":28,"x_max":683,"o":"m 28 226 q 105 402 28 336 q 311 468 182 468 q 451 442 389 468 l 451 468 q 423 525 451 503 q 340 547 394 547 q 157 501 251 547 l 71 657 q 368 747 207 747 q 614 669 544 747 q 683 451 683 590 l 683 0 l 476 0 l 464 40 q 299 -18 406 -18 q 106 47 185 -18 q 28 226 28 113 m 288 291 q 274 280 288 291 q 260 235 260 269 q 288 180 260 200 q 358 160 315 160 q 428 179 401 160 q 456 235 456 199 q 428 292 456 271 q 357 313 400 313 q 288 291 315 313 m 460 806 q 362 828 418 806 q 288 851 306 851 q 246 804 246 851 l 104 804 q 149 953 104 896 q 268 1010 194 1010 q 367 987 313 1010 q 439 964 422 964 q 479 1011 479 964 l 621 1011 q 577 861 621 917 q 460 806 533 806 z "},"ä":{"ha":742,"x_min":28,"x_max":683,"o":"m 28 226 q 105 402 28 336 q 311 468 182 468 q 451 442 389 468 l 451 468 q 423 525 451 503 q 340 547 394 547 q 157 501 251 547 l 71 657 q 368 747 207 747 q 614 669 544 747 q 683 451 683 590 l 683 0 l 476 0 l 464 40 q 299 -18 406 -18 q 106 47 185 -18 q 28 226 28 113 m 288 291 q 274 280 288 291 q 260 235 260 269 q 288 180 260 200 q 358 160 315 160 q 428 179 401 160 q 456 235 456 199 q 428 292 456 271 q 357 313 400 313 q 288 291 315 313 m 236 800 q 159 831 189 800 q 129 907 129 863 q 159 983 129 951 q 236 1014 189 1014 q 313 983 282 1014 q 343 907 343 951 q 313 831 343 863 q 236 800 282 800 m 515 800 q 438 831 468 800 q 408 907 408 863 q 438 983 408 951 q 515 1014 468 1014 q 592 983 561 1014 q 622 907 622 951 q 592 831 622 863 q 515 800 561 800 z "},"å":{"ha":742,"x_min":28,"x_max":683,"o":"m 28 226 q 105 402 28 336 q 311 468 182 468 q 451 442 389 468 l 451 468 q 423 525 451 503 q 340 547 394 547 q 157 501 251 547 l 71 657 q 368 747 207 747 q 614 669 544 747 q 683 451 683 590 l 683 0 l 476 0 l 464 40 q 299 -18 406 -18 q 106 47 185 -18 q 28 226 28 113 m 288 291 q 274 280 288 291 q 260 235 260 269 q 288 180 260 200 q 358 160 315 160 q 428 179 401 160 q 456 235 456 199 q 428 292 456 271 q 357 313 400 313 q 288 291 315 313 m 381 776 q 267 817 313 776 q 221 922 221 858 q 267 1028 221 988 q 381 1069 313 1069 q 496 1028 450 1069 q 542 924 542 988 q 496 817 542 858 q 381 776 450 776 m 346 885 q 353 878 346 885 q 382 871 360 871 q 418 885 404 871 q 432 924 432 900 q 418 960 432 946 q 382 975 404 975 q 346 961 360 975 q 332 924 332 947 q 346 885 332 900 z "},"æ":{"ha":1189,"x_min":28,"x_max":1163,"o":"m 1161 304 l 683 304 q 731 219 688 254 q 838 183 775 183 q 934 209 894 183 q 990 261 974 235 l 1143 143 q 1038 37 1118 92 q 833 -18 957 -18 q 553 86 660 -18 q 299 -18 472 -18 q 106 47 185 -18 q 28 226 28 113 q 105 402 28 336 q 311 468 182 468 q 451 442 389 468 l 451 468 q 423 525 451 503 q 340 547 394 547 q 157 501 251 547 l 71 657 q 368 747 207 747 q 593 679 514 747 q 804 747 683 747 q 1069 642 976 747 q 1163 350 1163 538 q 1161 304 1163 321 m 288 291 q 274 280 288 291 q 260 235 260 269 q 288 180 260 200 q 358 160 315 160 q 428 179 401 160 q 456 235 456 199 q 428 292 456 271 q 357 313 400 313 q 288 291 315 313 m 892 528 q 877 544 892 528 q 808 560 861 560 q 725 527 756 560 q 690 451 694 494 l 926 451 q 892 528 924 497 z "},"ç":{"ha":665,"x_min":29,"x_max":640,"o":"m 346 -329 q 254 -312 301 -329 l 282 -201 q 329 -208 310 -208 q 366 -198 351 -208 q 381 -169 381 -187 q 318 -133 381 -133 l 293 -135 l 314 -4 q 107 126 185 26 q 29 364 29 225 q 142 639 29 531 q 424 747 254 747 q 640 681 546 747 l 578 485 q 432 539 513 539 q 307 490 353 539 q 261 365 261 440 q 310 235 261 285 q 440 186 360 186 q 578 238 515 186 l 639 47 q 426 -18 543 -18 l 422 -49 q 525 -181 525 -72 q 476 -292 525 -254 q 346 -329 426 -329 z "},"è":{"ha":774,"x_min":31,"x_max":747,"o":"m 746 304 l 268 304 q 316 219 272 254 q 422 183 360 183 q 519 209 479 183 q 575 261 558 235 l 728 143 q 622 37 703 92 q 418 -18 542 -18 q 136 90 242 -18 q 31 363 31 197 q 131 637 31 526 q 389 747 231 747 q 654 642 561 747 q 747 350 747 538 q 746 304 747 321 m 477 528 q 461 544 477 528 q 393 560 446 560 q 310 527 340 560 q 275 451 279 494 l 511 451 q 477 528 508 497 m 181 1007 l 421 1007 l 513 806 l 319 806 l 181 1007 z "},"é":{"ha":774,"x_min":31,"x_max":747,"o":"m 746 304 l 268 304 q 316 219 272 254 q 422 183 360 183 q 519 209 479 183 q 575 261 558 235 l 728 143 q 622 37 703 92 q 418 -18 542 -18 q 136 90 242 -18 q 31 363 31 197 q 131 637 31 526 q 389 747 231 747 q 654 642 561 747 q 747 350 747 538 q 746 304 747 321 m 477 528 q 461 544 477 528 q 393 560 446 560 q 310 527 340 560 q 275 451 279 494 l 511 451 q 477 528 508 497 m 368 1007 l 608 1007 l 469 806 l 276 806 l 368 1007 z "},"ê":{"ha":774,"x_min":31,"x_max":747,"o":"m 746 304 l 268 304 q 316 219 272 254 q 422 183 360 183 q 519 209 479 183 q 575 261 558 235 l 728 143 q 622 37 703 92 q 418 -18 542 -18 q 136 90 242 -18 q 31 363 31 197 q 131 637 31 526 q 389 747 231 747 q 654 642 561 747 q 747 350 747 538 q 746 304 747 321 m 477 528 q 461 544 477 528 q 393 560 446 560 q 310 527 340 560 q 275 451 279 494 l 511 451 q 477 528 508 497 m 281 1007 l 514 1007 l 647 806 l 456 806 l 399 896 l 340 806 l 147 806 l 281 1007 z "},"ë":{"ha":774,"x_min":31,"x_max":747,"o":"m 746 304 l 268 304 q 316 219 272 254 q 422 183 360 183 q 519 209 479 183 q 575 261 558 235 l 728 143 q 622 37 703 92 q 418 -18 542 -18 q 136 90 242 -18 q 31 363 31 197 q 131 637 31 526 q 389 747 231 747 q 654 642 561 747 q 747 350 747 538 q 746 304 747 321 m 477 528 q 461 544 477 528 q 393 560 446 560 q 310 527 340 560 q 275 451 279 494 l 511 451 q 477 528 508 497 m 257 800 q 180 831 210 800 q 150 907 150 863 q 180 983 150 951 q 257 1014 210 1014 q 333 983 303 1014 q 364 907 364 951 q 333 831 364 863 q 257 800 303 800 m 536 800 q 459 831 489 800 q 429 907 429 863 q 459 983 429 951 q 536 1014 489 1014 q 613 983 582 1014 q 643 907 643 951 q 613 831 643 863 q 536 800 582 800 z "},"ì":{"ha":365,"x_min":-22,"x_max":310,"o":"m 299 729 l 299 0 l 67 0 l 67 729 l 299 729 m -22 1007 l 218 1007 l 310 806 l 117 806 l -22 1007 z "},"í":{"ha":365,"x_min":56,"x_max":388,"o":"m 299 729 l 299 0 l 67 0 l 67 729 l 299 729 m 147 1007 l 388 1007 l 249 806 l 56 806 l 147 1007 z "},"î":{"ha":365,"x_min":-62,"x_max":438,"o":"m 299 729 l 299 0 l 67 0 l 67 729 l 299 729 m 71 1007 l 304 1007 l 438 806 l 246 806 l 189 896 l 131 806 l -62 806 l 71 1007 z "},"ï":{"ha":365,"x_min":-58,"x_max":435,"o":"m 299 729 l 299 0 l 67 0 l 67 729 l 299 729 m 49 800 q -28 831 1 800 q -58 907 -58 863 q -28 983 -58 951 q 49 1014 1 1014 q 125 983 94 1014 q 156 907 156 951 q 125 831 156 863 q 49 800 94 800 m 328 800 q 251 831 281 800 q 221 907 221 863 q 251 983 221 951 q 328 1014 281 1014 q 404 983 374 1014 q 435 907 435 951 q 404 831 435 863 q 328 800 374 800 z "},"ð":{"ha":815,"x_min":28,"x_max":782,"o":"m 129 926 l 258 1043 q 454 938 349 1007 l 644 1007 l 664 861 l 575 829 q 782 389 782 629 q 760 237 782 308 q 693 108 738 165 q 574 16 649 50 q 403 -18 499 -18 q 131 88 235 -18 q 28 349 28 193 q 129 597 28 504 q 382 689 231 689 q 418 688 406 689 q 360 756 397 725 q 140 681 211 704 l 121 822 l 229 860 q 129 926 193 886 m 260 349 q 297 233 260 279 q 401 186 335 186 q 513 231 475 186 q 550 349 550 276 q 511 460 550 414 q 408 506 472 506 q 299 461 338 506 q 260 349 260 417 z "},"ñ":{"ha":788,"x_min":67,"x_max":726,"o":"m 494 0 l 494 435 q 468 512 494 485 q 399 539 442 539 q 325 510 351 539 q 299 435 299 481 l 299 0 l 67 0 l 67 729 l 293 729 l 293 654 q 365 719 317 692 q 476 747 414 747 q 590 725 542 747 q 663 670 638 703 q 703 588 689 638 q 722 498 718 539 q 726 404 726 457 l 726 0 l 494 0 m 490 806 q 392 828 449 806 q 318 851 336 851 q 276 804 276 851 l 135 804 q 180 953 135 896 q 299 1010 225 1010 q 398 987 343 1010 q 469 964 453 964 q 510 1011 510 964 l 651 1011 q 608 861 651 917 q 490 806 564 806 z "},"ò":{"ha":854,"x_min":29,"x_max":825,"o":"m 140 90 q 85 143 140 90 q 29 363 29 197 q 142 638 29 528 q 425 747 256 747 q 713 640 600 747 q 825 365 825 532 q 711 91 825 200 q 425 -18 597 -18 q 140 90 251 -18 m 261 363 q 308 235 261 283 q 425 186 354 186 q 545 237 497 186 q 593 365 593 288 q 545 494 593 444 q 425 543 497 543 q 307 493 353 543 q 261 363 261 443 m 211 1007 l 451 1007 l 543 806 l 350 806 l 211 1007 z "},"ó":{"ha":854,"x_min":29,"x_max":825,"o":"m 140 90 q 85 143 140 90 q 29 363 29 197 q 142 638 29 528 q 425 747 256 747 q 713 640 600 747 q 825 365 825 532 q 711 91 825 200 q 425 -18 597 -18 q 140 90 251 -18 m 261 363 q 308 235 261 283 q 425 186 354 186 q 545 237 497 186 q 593 365 593 288 q 545 494 593 444 q 425 543 497 543 q 307 493 353 543 q 261 363 261 443 m 401 1007 l 642 1007 l 503 806 l 310 806 l 401 1007 z "},"ô":{"ha":854,"x_min":29,"x_max":825,"o":"m 140 90 q 85 143 140 90 q 29 363 29 197 q 142 638 29 528 q 425 747 256 747 q 713 640 600 747 q 825 365 825 532 q 711 91 825 200 q 425 -18 597 -18 q 140 90 251 -18 m 261 363 q 308 235 261 283 q 425 186 354 186 q 545 237 497 186 q 593 365 593 288 q 545 494 593 444 q 425 543 497 543 q 307 493 353 543 q 261 363 261 443 m 315 1007 l 549 1007 l 682 806 l 490 806 l 433 896 l 375 806 l 182 806 l 315 1007 z "},"õ":{"ha":854,"x_min":29,"x_max":825,"o":"m 140 90 q 85 143 140 90 q 29 363 29 197 q 142 638 29 528 q 425 747 256 747 q 713 640 600 747 q 825 365 825 532 q 711 91 825 200 q 425 -18 597 -18 q 140 90 251 -18 m 261 363 q 308 235 261 283 q 425 186 354 186 q 545 237 497 186 q 593 365 593 288 q 545 494 593 444 q 425 543 497 543 q 307 493 353 543 q 261 363 261 443 m 526 806 q 428 828 485 806 q 354 851 372 851 q 313 804 313 851 l 171 804 q 216 953 171 896 q 335 1010 261 1010 q 434 987 379 1010 q 506 964 489 964 q 546 1011 546 964 l 688 1011 q 644 861 688 917 q 526 806 600 806 z "},"ö":{"ha":854,"x_min":29,"x_max":825,"o":"m 140 90 q 85 143 140 90 q 29 363 29 197 q 142 638 29 528 q 425 747 256 747 q 713 640 600 747 q 825 365 825 532 q 711 91 825 200 q 425 -18 597 -18 q 140 90 251 -18 m 261 363 q 308 235 261 283 q 425 186 354 186 q 545 237 497 186 q 593 365 593 288 q 545 494 593 444 q 425 543 497 543 q 307 493 353 543 q 261 363 261 443 m 290 800 q 213 831 243 800 q 183 907 183 863 q 213 983 183 951 q 290 1014 243 1014 q 367 983 336 1014 q 397 907 397 951 q 367 831 397 863 q 290 800 336 800 m 569 800 q 492 831 522 800 q 463 907 463 863 q 492 983 463 951 q 569 1014 522 1014 q 646 983 615 1014 q 676 907 676 951 q 646 831 676 863 q 569 800 615 800 z "},"÷":{"ha":767,"x_min":50,"x_max":718,"o":"m 463 629 q 446 613 463 629 q 382 596 429 596 q 302 629 335 596 q 269 708 269 663 q 302 790 269 757 q 382 824 335 824 q 464 790 431 824 q 497 708 497 756 q 463 629 497 663 m 463 76 q 446 60 463 76 q 382 43 429 43 q 302 76 335 43 q 269 156 269 110 q 302 238 269 204 q 382 271 335 271 q 464 237 431 271 q 497 156 497 203 q 463 76 497 110 m 50 342 l 50 525 l 718 525 l 718 342 l 50 342 z "},"ø":{"ha":854,"x_min":29,"x_max":825,"o":"m 29 363 q 142 638 29 528 q 425 747 256 747 q 614 707 525 747 l 665 772 l 771 690 l 722 629 q 825 365 825 522 q 711 91 825 200 q 425 -18 597 -18 q 242 21 326 -18 l 186 -50 l 82 32 l 133 96 q 29 363 29 203 m 261 363 q 278 279 261 317 l 478 535 q 425 543 453 543 q 307 493 353 543 q 261 363 261 443 m 593 365 q 576 444 593 408 l 378 192 q 425 186 396 186 q 545 237 497 186 q 593 365 593 288 z "},"ù":{"ha":782,"x_min":61,"x_max":721,"o":"m 293 729 l 293 294 q 319 217 293 244 q 389 190 346 190 q 463 219 436 190 q 489 294 489 249 l 489 729 l 721 729 l 721 0 l 494 0 l 494 75 q 422 10 471 38 q 311 -18 374 -18 q 198 4 246 -18 q 124 59 150 26 q 84 141 99 92 q 65 231 69 190 q 61 325 61 272 l 61 729 l 293 729 m 183 1007 l 424 1007 l 515 806 l 322 806 l 183 1007 z "},"ú":{"ha":782,"x_min":61,"x_max":721,"o":"m 293 729 l 293 294 q 319 217 293 244 q 389 190 346 190 q 463 219 436 190 q 489 294 489 249 l 489 729 l 721 729 l 721 0 l 494 0 l 494 75 q 422 10 471 38 q 311 -18 374 -18 q 198 4 246 -18 q 124 59 150 26 q 84 141 99 92 q 65 231 69 190 q 61 325 61 272 l 61 729 l 293 729 m 368 1007 l 608 1007 l 469 806 l 276 806 l 368 1007 z "},"û":{"ha":782,"x_min":61,"x_max":721,"o":"m 293 729 l 293 294 q 319 217 293 244 q 389 190 346 190 q 463 219 436 190 q 489 294 489 249 l 489 729 l 721 729 l 721 0 l 494 0 l 494 75 q 422 10 471 38 q 311 -18 374 -18 q 198 4 246 -18 q 124 59 150 26 q 84 141 99 92 q 65 231 69 190 q 61 325 61 272 l 61 729 l 293 729 m 278 1007 l 511 1007 l 644 806 l 453 806 l 396 896 l 338 806 l 144 806 l 278 1007 z "},"ü":{"ha":782,"x_min":61,"x_max":721,"o":"m 293 729 l 293 294 q 319 217 293 244 q 389 190 346 190 q 463 219 436 190 q 489 294 489 249 l 489 729 l 721 729 l 721 0 l 494 0 l 494 75 q 422 10 471 38 q 311 -18 374 -18 q 198 4 246 -18 q 124 59 150 26 q 84 141 99 92 q 65 231 69 190 q 61 325 61 272 l 61 729 l 293 729 m 258 800 q 181 831 211 800 q 151 907 151 863 q 181 983 151 951 q 258 1014 211 1014 q 335 983 304 1014 q 365 907 365 951 q 335 831 365 863 q 258 800 304 800 m 538 800 q 460 831 490 800 q 431 907 431 863 q 460 983 431 951 q 538 1014 490 1014 q 614 983 583 1014 q 644 907 644 951 q 614 831 644 863 q 538 800 583 800 z "},"ý":{"ha":772,"x_min":8,"x_max":763,"o":"m 763 729 l 401 -249 l 182 -249 l 281 24 l 8 729 l 257 729 l 386 310 l 521 729 l 763 729 m 369 1007 l 610 1007 l 471 806 l 278 806 l 369 1007 z "},"þ":{"ha":868,"x_min":67,"x_max":838,"o":"m 67 -260 l 67 1004 l 299 1004 l 299 686 q 481 747 369 747 q 738 640 638 747 q 838 365 838 533 q 744 88 838 194 q 493 -18 650 -18 q 369 7 421 -18 q 299 56 318 32 l 299 -260 l 67 -260 m 292 367 q 335 234 292 282 q 449 186 378 186 q 563 236 519 186 q 606 367 606 286 q 563 496 606 447 q 449 544 519 544 q 334 494 376 544 q 292 367 292 443 z "},"ÿ":{"ha":772,"x_min":8,"x_max":763,"o":"m 763 729 l 401 -249 l 182 -249 l 281 24 l 8 729 l 257 729 l 386 310 l 521 729 l 763 729 m 251 800 q 174 831 204 800 q 144 907 144 863 q 174 983 144 951 q 251 1014 204 1014 q 328 983 297 1014 q 358 907 358 951 q 328 831 358 863 q 251 800 297 800 m 531 800 q 453 831 483 800 q 424 907 424 863 q 453 983 424 951 q 531 1014 483 1014 q 607 983 576 1014 q 638 907 638 951 q 607 831 638 863 q 531 800 576 800 z "},"Ā":{"ha":939,"x_min":8,"x_max":931,"o":"m 622 218 l 317 218 l 247 0 l 8 0 l 344 972 l 594 972 l 931 0 l 692 0 l 622 218 m 561 413 l 469 721 l 378 413 l 561 413 m 274 1036 l 274 1201 l 664 1201 l 664 1036 l 274 1036 z "},"ā":{"ha":742,"x_min":28,"x_max":683,"o":"m 28 226 q 105 402 28 336 q 311 468 182 468 q 451 442 389 468 l 451 468 q 423 525 451 503 q 340 547 394 547 q 157 501 251 547 l 71 657 q 368 747 207 747 q 614 669 544 747 q 683 451 683 590 l 683 0 l 476 0 l 464 40 q 299 -18 406 -18 q 106 47 185 -18 q 28 226 28 113 m 288 291 q 274 280 288 291 q 260 235 260 269 q 288 180 260 200 q 358 160 315 160 q 428 179 401 160 q 456 235 456 199 q 428 292 456 271 q 357 313 400 313 q 288 291 315 313 m 183 821 l 183 986 l 574 986 l 574 821 l 183 821 z "},"Ă":{"ha":939,"x_min":8,"x_max":931,"o":"m 622 218 l 317 218 l 247 0 l 8 0 l 344 972 l 594 972 l 931 0 l 692 0 l 622 218 m 561 413 l 469 721 l 378 413 l 561 413 m 468 1026 q 302 1085 363 1026 q 242 1238 242 1143 l 404 1238 q 468 1158 404 1158 q 533 1238 533 1158 l 696 1238 q 635 1085 696 1143 q 468 1026 575 1026 z "},"ă":{"ha":742,"x_min":28,"x_max":683,"o":"m 28 226 q 105 402 28 336 q 311 468 182 468 q 451 442 389 468 l 451 468 q 423 525 451 503 q 340 547 394 547 q 157 501 251 547 l 71 657 q 368 747 207 747 q 614 669 544 747 q 683 451 683 590 l 683 0 l 476 0 l 464 40 q 299 -18 406 -18 q 106 47 185 -18 q 28 226 28 113 m 288 291 q 274 280 288 291 q 260 235 260 269 q 288 180 260 200 q 358 160 315 160 q 428 179 401 160 q 456 235 456 199 q 428 292 456 271 q 357 313 400 313 q 288 291 315 313 m 369 803 q 203 861 264 803 q 143 1014 143 919 l 306 1014 q 369 935 306 935 q 435 1014 435 935 l 597 1014 q 537 861 597 919 q 369 803 476 803 z "},"Ą":{"ha":939,"x_min":8,"x_max":931,"o":"m 594 972 l 931 0 q 865 -76 865 -29 q 885 -117 865 -104 q 928 -129 904 -129 l 928 -282 q 835 -293 899 -293 q 722 -258 768 -293 q 676 -156 676 -224 q 710 -59 676 -100 q 785 0 744 -18 l 692 0 l 622 218 l 317 218 l 247 0 l 8 0 l 344 972 l 594 972 m 561 413 l 469 721 l 378 413 l 561 413 z "},"ą":{"ha":742,"x_min":28,"x_max":683,"o":"m 538 0 l 476 0 l 464 40 q 299 -18 406 -18 q 106 47 185 -18 q 28 226 28 113 q 105 402 28 336 q 311 468 182 468 q 451 442 404 468 l 451 468 q 423 525 451 503 q 340 547 394 547 q 157 501 251 547 l 71 657 q 368 747 207 747 q 614 669 544 747 q 683 451 683 590 l 683 0 q 618 -76 618 -29 q 638 -117 618 -104 q 681 -129 657 -129 l 681 -282 q 588 -293 651 -293 q 475 -258 521 -293 q 429 -156 429 -224 q 463 -59 429 -100 q 538 0 497 -18 m 288 291 q 274 280 288 291 q 260 235 260 269 q 288 180 260 200 q 358 160 315 160 q 428 179 401 160 q 456 235 456 199 q 428 292 456 271 q 357 313 400 313 q 288 291 315 313 z "},"Ć":{"ha":875,"x_min":38,"x_max":839,"o":"m 551 -18 q 178 126 319 -18 q 38 488 38 269 q 182 847 38 703 q 551 990 326 990 q 835 908 714 990 l 768 700 q 560 768 667 768 q 358 688 432 768 q 285 488 285 607 q 358 286 285 368 q 560 204 432 204 q 772 272 671 204 l 839 64 q 551 -18 718 -18 m 499 1222 l 739 1222 l 600 1021 l 407 1021 l 499 1222 z "},"ć":{"ha":665,"x_min":29,"x_max":640,"o":"m 440 186 q 578 238 515 186 l 639 47 q 425 -18 543 -18 q 140 89 251 -18 q 29 364 29 196 q 142 639 29 531 q 424 747 254 747 q 640 681 546 747 l 578 485 q 432 539 513 539 q 307 490 353 539 q 261 365 261 440 q 310 235 261 285 q 440 186 360 186 m 367 1007 l 607 1007 l 468 806 l 275 806 l 367 1007 z "},"Ĉ":{"ha":875,"x_min":38,"x_max":839,"o":"m 551 -18 q 178 126 319 -18 q 38 488 38 269 q 182 847 38 703 q 551 990 326 990 q 835 908 714 990 l 768 700 q 560 768 667 768 q 358 688 432 768 q 285 488 285 607 q 358 286 285 368 q 560 204 432 204 q 772 272 671 204 l 839 64 q 551 -18 718 -18 m 425 1222 l 658 1222 l 792 1021 l 600 1021 l 543 1111 l 485 1021 l 292 1021 l 425 1222 z "},"ĉ":{"ha":665,"x_min":29,"x_max":661,"o":"m 440 186 q 578 238 515 186 l 639 47 q 425 -18 543 -18 q 140 89 251 -18 q 29 364 29 196 q 142 639 29 531 q 424 747 254 747 q 640 681 546 747 l 578 485 q 432 539 513 539 q 307 490 353 539 q 261 365 261 440 q 310 235 261 285 q 440 186 360 186 m 294 1007 l 528 1007 l 661 806 l 469 806 l 413 896 l 354 806 l 161 806 l 294 1007 z "},"Ċ":{"ha":875,"x_min":38,"x_max":839,"o":"m 551 -18 q 178 126 319 -18 q 38 488 38 269 q 182 847 38 703 q 551 990 326 990 q 835 908 714 990 l 768 700 q 560 768 667 768 q 358 688 432 768 q 285 488 285 607 q 358 286 285 368 q 560 204 432 204 q 772 272 671 204 l 839 64 q 551 -18 718 -18 m 551 1010 q 467 1045 503 1010 q 432 1129 432 1081 q 467 1215 432 1179 q 551 1250 503 1250 q 637 1215 601 1250 q 672 1129 672 1179 q 637 1045 672 1081 q 551 1010 601 1010 z "},"ċ":{"ha":665,"x_min":26,"x_max":638,"o":"m 438 186 q 575 238 513 186 l 636 47 q 422 -18 540 -18 q 138 89 249 -18 q 26 364 26 196 q 139 639 26 531 q 421 747 251 747 q 638 681 543 747 l 575 485 q 429 539 510 539 q 304 490 350 539 q 258 365 258 440 q 308 235 258 285 q 438 186 357 186 m 419 785 q 335 820 371 785 q 300 904 300 856 q 335 990 300 954 q 419 1025 371 1025 q 505 990 469 1025 q 540 904 540 954 q 505 820 540 856 q 419 785 469 785 z "},"Č":{"ha":875,"x_min":38,"x_max":839,"o":"m 551 -18 q 178 126 319 -18 q 38 488 38 269 q 182 847 38 703 q 551 990 326 990 q 835 908 714 990 l 768 700 q 560 768 667 768 q 358 688 432 768 q 285 488 285 607 q 358 286 285 368 q 560 204 432 204 q 772 272 671 204 l 839 64 q 551 -18 718 -18 m 663 1021 l 429 1021 l 296 1222 l 489 1222 l 547 1132 l 604 1222 l 796 1222 l 663 1021 z "},"č":{"ha":665,"x_min":29,"x_max":661,"o":"m 440 186 q 578 238 515 186 l 639 47 q 425 -18 543 -18 q 140 89 251 -18 q 29 364 29 196 q 142 639 29 531 q 424 747 254 747 q 640 681 546 747 l 578 485 q 432 539 513 539 q 307 490 353 539 q 261 365 261 440 q 310 235 261 285 q 440 186 360 186 m 528 806 l 294 806 l 161 1007 l 354 1007 l 413 917 l 469 1007 l 661 1007 l 528 806 z "},"Ď":{"ha":922,"x_min":86,"x_max":885,"o":"m 86 972 l 372 972 q 747 842 608 972 q 885 486 885 713 q 747 130 885 260 q 372 0 608 0 l 86 0 l 86 972 m 372 767 l 324 767 l 324 206 l 372 206 q 566 278 494 206 q 638 486 638 350 q 566 694 638 622 q 372 767 494 767 m 514 1021 l 281 1021 l 147 1222 l 340 1222 l 399 1132 l 456 1222 l 647 1222 l 514 1021 z "},"ď":{"ha":869,"x_min":31,"x_max":1049,"o":"m 847 763 l 857 1004 l 1049 1004 l 985 763 l 847 763 m 576 363 q 533 495 576 447 q 419 543 490 543 q 306 493 349 543 q 263 363 263 443 q 306 233 263 282 q 419 185 349 185 q 534 235 492 185 q 576 363 576 286 m 585 0 l 585 57 q 510 7 563 32 q 388 -18 458 -18 q 131 89 231 -18 q 31 364 31 196 q 124 641 31 535 q 375 747 218 747 q 499 722 447 747 q 569 674 550 697 l 569 1004 l 801 1004 l 801 0 l 585 0 z "},"Đ":{"ha":922,"x_min":31,"x_max":904,"o":"m 106 972 l 392 972 q 766 842 628 972 q 904 486 904 713 q 766 130 904 260 q 392 0 628 0 l 106 0 l 106 385 l 31 385 l 31 592 l 106 592 l 106 972 m 343 767 l 343 592 l 471 592 l 471 385 l 343 385 l 343 206 l 392 206 q 585 278 514 206 q 657 486 657 350 q 585 694 657 622 q 392 767 514 767 l 343 767 z "},"đ":{"ha":868,"x_min":31,"x_max":878,"o":"m 585 0 l 585 57 q 510 7 563 32 q 388 -18 458 -18 q 131 89 231 -18 q 31 364 31 196 q 124 641 31 535 q 375 747 218 747 q 499 722 447 747 q 569 674 550 697 l 569 781 l 394 781 l 394 924 l 569 924 l 569 1004 l 801 1004 l 801 924 l 878 924 l 878 781 l 801 781 l 801 0 l 585 0 m 576 363 q 533 495 576 447 q 419 543 490 543 q 306 493 349 543 q 263 363 263 443 q 306 233 263 282 q 419 185 349 185 q 534 235 492 185 q 576 363 576 286 z "},"Ē":{"ha":674,"x_min":86,"x_max":615,"o":"m 615 0 l 86 0 l 86 972 l 604 972 l 604 760 l 324 760 l 324 597 l 563 597 l 563 386 l 324 386 l 324 213 l 615 213 l 615 0 m 158 1036 l 158 1201 l 549 1201 l 549 1036 l 158 1036 z "},"ē":{"ha":774,"x_min":31,"x_max":747,"o":"m 746 304 l 268 304 q 316 219 272 254 q 422 183 360 183 q 519 209 479 183 q 575 261 558 235 l 728 143 q 622 37 703 92 q 418 -18 542 -18 q 136 90 242 -18 q 31 363 31 197 q 131 637 31 526 q 389 747 231 747 q 654 642 561 747 q 747 350 747 538 q 746 304 747 321 m 477 528 q 461 544 477 528 q 393 560 446 560 q 310 527 340 560 q 275 451 279 494 l 511 451 q 477 528 508 497 m 206 821 l 206 986 l 596 986 l 596 821 l 206 821 z "},"Ĕ":{"ha":674,"x_min":86,"x_max":615,"o":"m 615 0 l 86 0 l 86 972 l 604 972 l 604 760 l 324 760 l 324 597 l 563 597 l 563 386 l 324 386 l 324 213 l 615 213 l 615 0 m 350 1026 q 184 1085 244 1026 q 124 1238 124 1143 l 286 1238 q 350 1158 286 1158 q 415 1238 415 1158 l 578 1238 q 517 1085 578 1143 q 350 1026 457 1026 z "},"ĕ":{"ha":774,"x_min":31,"x_max":747,"o":"m 746 304 l 268 304 q 316 219 272 254 q 422 183 360 183 q 519 209 479 183 q 575 261 558 235 l 728 143 q 622 37 703 92 q 418 -18 542 -18 q 136 90 242 -18 q 31 363 31 197 q 131 637 31 526 q 389 747 231 747 q 654 642 561 747 q 747 350 747 538 q 746 304 747 321 m 477 528 q 461 544 477 528 q 393 560 446 560 q 310 527 340 560 q 275 451 279 494 l 511 451 q 477 528 508 497 m 392 803 q 226 861 286 803 q 165 1014 165 919 l 328 1014 q 392 935 328 935 q 457 1014 457 935 l 619 1014 q 559 861 619 919 q 392 803 499 803 z "},"Ė":{"ha":674,"x_min":86,"x_max":615,"o":"m 615 0 l 86 0 l 86 972 l 604 972 l 604 760 l 324 760 l 324 597 l 563 597 l 563 386 l 324 386 l 324 213 l 615 213 l 615 0 m 356 1010 q 272 1045 307 1010 q 236 1129 236 1081 q 272 1215 236 1179 q 356 1250 307 1250 q 441 1215 406 1250 q 476 1129 476 1179 q 441 1045 476 1081 q 356 1010 406 1010 z "},"ė":{"ha":774,"x_min":31,"x_max":747,"o":"m 746 304 l 268 304 q 316 219 272 254 q 422 183 360 183 q 519 209 479 183 q 575 261 558 235 l 728 143 q 622 37 703 92 q 418 -18 542 -18 q 136 90 242 -18 q 31 363 31 197 q 131 637 31 526 q 389 747 231 747 q 654 642 561 747 q 747 350 747 538 q 746 304 747 321 m 477 528 q 461 544 477 528 q 393 560 446 560 q 310 527 340 560 q 275 451 279 494 l 511 451 q 477 528 508 497 m 396 785 q 312 820 347 785 q 276 904 276 856 q 312 990 276 954 q 396 1025 347 1025 q 481 990 446 1025 q 517 904 517 954 q 481 820 517 856 q 396 785 446 785 z "},"Ę":{"ha":674,"x_min":86,"x_max":615,"o":"m 469 0 l 86 0 l 86 972 l 604 972 l 604 760 l 324 760 l 324 597 l 563 597 l 563 386 l 324 386 l 324 213 l 615 213 l 615 0 q 550 -76 550 -29 q 569 -117 550 -104 q 613 -129 589 -129 l 613 -282 q 519 -293 583 -293 q 407 -258 453 -293 q 361 -156 361 -224 q 395 -59 361 -100 q 469 0 429 -18 z "},"ę":{"ha":774,"x_min":31,"x_max":747,"o":"m 746 304 l 268 304 q 316 219 272 254 q 422 183 360 183 q 519 209 479 183 q 575 261 558 235 l 728 143 q 662 66 711 108 q 539 0 613 24 q 474 -76 474 -29 q 493 -117 474 -104 q 536 -129 513 -129 l 536 -282 q 443 -293 507 -293 q 331 -258 376 -293 q 285 -156 285 -224 q 365 -15 285 -72 q 121 106 211 1 q 31 363 31 210 q 131 637 31 526 q 389 747 231 747 q 654 642 561 747 q 747 350 747 538 q 746 304 747 321 m 477 528 q 461 544 477 528 q 393 560 446 560 q 310 527 340 560 q 275 451 279 494 l 511 451 q 477 528 508 497 z "},"Ě":{"ha":674,"x_min":86,"x_max":615,"o":"m 615 0 l 86 0 l 86 972 l 604 972 l 604 760 l 324 760 l 324 597 l 563 597 l 563 386 l 324 386 l 324 213 l 615 213 l 615 0 m 476 1021 l 243 1021 l 110 1222 l 303 1222 l 361 1132 l 418 1222 l 610 1222 l 476 1021 z "},"ě":{"ha":774,"x_min":31,"x_max":747,"o":"m 746 304 l 268 304 q 316 219 272 254 q 422 183 360 183 q 519 209 479 183 q 575 261 558 235 l 728 143 q 622 37 703 92 q 418 -18 542 -18 q 136 90 242 -18 q 31 363 31 197 q 131 637 31 526 q 389 747 231 747 q 654 642 561 747 q 747 350 747 538 q 746 304 747 321 m 477 528 q 461 544 477 528 q 393 560 446 560 q 310 527 340 560 q 275 451 279 494 l 511 451 q 477 528 508 497 m 510 806 l 276 806 l 143 1007 l 336 1007 l 394 917 l 451 1007 l 643 1007 l 510 806 z "},"Ĝ":{"ha":1046,"x_min":39,"x_max":986,"o":"m 986 546 l 986 135 q 792 22 892 61 q 542 -18 693 -18 q 184 122 329 -18 q 39 489 39 261 q 181 846 39 701 q 547 990 324 990 q 943 821 807 990 l 793 665 q 706 735 768 699 q 558 771 643 771 q 358 692 432 771 q 285 493 285 614 q 363 281 285 361 q 558 201 440 201 q 692 222 638 201 q 765 261 746 242 l 765 347 l 597 347 l 597 546 l 986 546 m 435 1222 l 668 1222 l 801 1021 l 610 1021 l 553 1111 l 494 1021 l 301 1021 l 435 1222 z "},"ĝ":{"ha":861,"x_min":29,"x_max":800,"o":"m 568 38 l 568 56 q 497 7 549 32 q 374 -18 446 -18 q 123 88 217 -18 q 29 365 29 194 q 129 640 29 533 q 386 747 229 747 q 509 722 457 747 q 583 672 561 697 l 583 729 l 800 729 l 800 88 q 768 -81 800 -10 q 678 -191 736 -151 q 551 -249 621 -231 q 396 -267 482 -267 q 126 -204 249 -267 l 194 -26 q 396 -71 290 -71 q 568 38 568 -71 m 575 367 q 532 492 575 442 q 417 543 489 543 q 303 495 346 543 q 261 367 261 447 q 304 236 261 286 q 418 186 347 186 q 532 234 489 186 q 575 367 575 282 m 314 1007 l 547 1007 l 681 806 l 489 806 l 432 896 l 374 806 l 181 806 l 314 1007 z "},"Ğ":{"ha":1046,"x_min":39,"x_max":986,"o":"m 986 546 l 986 135 q 792 22 892 61 q 542 -18 693 -18 q 184 122 329 -18 q 39 489 39 261 q 181 846 39 701 q 547 990 324 990 q 943 821 807 990 l 793 665 q 706 735 768 699 q 558 771 643 771 q 358 692 432 771 q 285 493 285 614 q 363 281 285 361 q 558 201 440 201 q 692 222 638 201 q 765 261 746 242 l 765 347 l 597 347 l 597 546 l 986 546 m 554 1026 q 388 1085 449 1026 q 328 1238 328 1143 l 490 1238 q 554 1158 490 1158 q 619 1238 619 1158 l 782 1238 q 722 1085 782 1143 q 554 1026 661 1026 z "},"ğ":{"ha":861,"x_min":29,"x_max":800,"o":"m 568 38 l 568 56 q 497 7 549 32 q 374 -18 446 -18 q 123 88 217 -18 q 29 365 29 194 q 129 640 29 533 q 386 747 229 747 q 509 722 457 747 q 583 672 561 697 l 583 729 l 800 729 l 800 88 q 768 -81 800 -10 q 678 -191 736 -151 q 551 -249 621 -231 q 396 -267 482 -267 q 126 -204 249 -267 l 194 -26 q 396 -71 290 -71 q 568 38 568 -71 m 575 367 q 532 492 575 442 q 417 543 489 543 q 303 495 346 543 q 261 367 261 447 q 304 236 261 286 q 418 186 347 186 q 532 234 489 186 q 575 367 575 282 m 429 803 q 263 861 324 803 q 203 1014 203 919 l 365 1014 q 429 935 365 935 q 494 1014 494 935 l 657 1014 q 597 861 657 919 q 429 803 536 803 z "},"Ġ":{"ha":1046,"x_min":39,"x_max":986,"o":"m 986 546 l 986 135 q 792 22 892 61 q 542 -18 693 -18 q 184 122 329 -18 q 39 489 39 261 q 181 846 39 701 q 547 990 324 990 q 943 821 807 990 l 793 665 q 706 735 768 699 q 558 771 643 771 q 358 692 432 771 q 285 493 285 614 q 363 281 285 361 q 558 201 440 201 q 692 222 638 201 q 765 261 746 242 l 765 347 l 597 347 l 597 546 l 986 546 m 558 1010 q 474 1045 510 1010 q 439 1129 439 1081 q 474 1215 439 1179 q 558 1250 510 1250 q 644 1215 608 1250 q 679 1129 679 1179 q 644 1045 679 1081 q 558 1010 608 1010 z "},"ġ":{"ha":861,"x_min":29,"x_max":800,"o":"m 568 38 l 568 56 q 497 7 549 32 q 374 -18 446 -18 q 123 88 217 -18 q 29 365 29 194 q 129 640 29 533 q 386 747 229 747 q 509 722 457 747 q 583 672 561 697 l 583 729 l 800 729 l 800 88 q 768 -81 800 -10 q 678 -191 736 -151 q 551 -249 621 -231 q 396 -267 482 -267 q 126 -204 249 -267 l 194 -26 q 396 -71 290 -71 q 568 38 568 -71 m 575 367 q 532 492 575 442 q 417 543 489 543 q 303 495 346 543 q 261 367 261 447 q 304 236 261 286 q 418 186 347 186 q 532 234 489 186 q 575 367 575 282 m 431 785 q 347 820 382 785 q 311 904 311 856 q 347 990 311 954 q 431 1025 382 1025 q 516 990 481 1025 q 551 904 551 954 q 516 820 551 856 q 431 785 481 785 z "},"Ģ":{"ha":1046,"x_min":39,"x_max":986,"o":"m 986 546 l 986 135 q 792 22 892 61 q 542 -18 693 -18 q 184 122 329 -18 q 39 489 39 261 q 181 846 39 701 q 547 990 324 990 q 943 821 807 990 l 793 665 q 706 735 768 699 q 558 771 643 771 q 358 692 432 771 q 285 493 285 614 q 363 281 285 361 q 558 201 440 201 q 692 222 638 201 q 765 261 746 242 l 765 347 l 597 347 l 597 546 l 986 546 m 465 -357 q 536 -268 521 -318 q 469 -226 493 -258 q 446 -154 446 -193 q 481 -72 446 -106 q 565 -37 517 -37 q 655 -75 619 -37 q 690 -175 690 -112 q 649 -326 690 -253 q 542 -442 607 -399 l 465 -357 z "},"ģ":{"ha":861,"x_min":29,"x_max":800,"o":"m 568 38 l 568 56 q 497 7 549 32 q 374 -18 446 -18 q 123 88 217 -18 q 29 365 29 194 q 129 640 29 533 q 386 747 229 747 q 509 722 457 747 q 583 672 561 697 l 583 729 l 800 729 l 800 88 q 768 -81 800 -10 q 678 -191 736 -151 q 551 -249 621 -231 q 396 -267 482 -267 q 126 -204 249 -267 l 194 -26 q 396 -71 290 -71 q 568 38 568 -71 m 575 367 q 532 492 575 442 q 417 543 489 543 q 303 495 346 543 q 261 367 261 447 q 304 236 261 286 q 418 186 347 186 q 532 234 489 186 q 575 367 575 282 m 528 1108 q 457 1019 472 1069 q 524 977 500 1010 q 547 906 547 944 q 512 823 547 857 q 428 789 476 789 q 338 826 374 789 q 303 926 303 864 q 344 1077 303 1004 q 451 1193 386 1150 l 528 1108 z "},"Ĥ":{"ha":994,"x_min":86,"x_max":908,"o":"m 908 972 l 908 0 l 671 0 l 671 381 l 324 381 l 324 0 l 86 0 l 86 972 l 324 972 l 324 594 l 671 594 l 671 972 l 908 972 m 386 1222 l 619 1222 l 753 1021 l 561 1021 l 504 1111 l 446 1021 l 253 1021 l 386 1222 z "},"ĥ":{"ha":790,"x_min":67,"x_max":729,"o":"m 497 0 l 497 435 q 471 512 497 485 q 401 539 444 539 q 326 509 354 539 q 299 435 299 479 l 299 0 l 67 0 l 67 1004 l 299 1004 l 299 654 q 370 719 324 692 q 479 747 417 747 q 592 725 544 747 q 666 670 640 703 q 706 588 692 638 q 725 498 721 539 q 729 404 729 457 l 729 0 l 497 0 m 299 1243 l 532 1243 l 665 1042 l 474 1042 l 417 1132 l 358 1042 l 165 1042 l 299 1243 z "},"Ħ":{"ha":994,"x_min":8,"x_max":986,"o":"m 908 972 l 908 864 l 986 864 l 986 707 l 908 707 l 908 0 l 671 0 l 671 381 l 324 381 l 324 0 l 86 0 l 86 707 l 8 707 l 8 864 l 86 864 l 86 972 l 324 972 l 324 864 l 671 864 l 671 972 l 908 972 m 324 594 l 671 594 l 671 707 l 324 707 l 324 594 z "},"ħ":{"ha":790,"x_min":4,"x_max":729,"o":"m 4 790 l 4 933 l 67 933 l 67 1004 l 299 1004 l 299 933 l 481 933 l 481 790 l 299 790 l 299 654 q 370 719 324 692 q 479 747 417 747 q 592 725 544 747 q 666 670 640 703 q 706 588 692 638 q 725 498 721 539 q 729 404 729 457 l 729 0 l 497 0 l 497 435 q 471 512 497 485 q 401 539 444 539 q 326 509 354 539 q 299 435 299 479 l 299 0 l 67 0 l 67 790 l 4 790 z "},"Ĩ":{"ha":410,"x_min":-53,"x_max":464,"o":"m 324 972 l 324 0 l 86 0 l 86 972 l 324 972 m 303 1024 q 205 1047 261 1024 q 131 1069 149 1069 q 89 1022 89 1069 l -53 1022 q -8 1171 -53 1114 q 111 1228 38 1228 q 210 1205 156 1228 q 282 1182 265 1182 q 322 1229 322 1182 l 464 1229 q 420 1079 464 1135 q 303 1024 376 1024 z "},"ĩ":{"ha":365,"x_min":-72,"x_max":444,"o":"m 299 729 l 299 0 l 67 0 l 67 729 l 299 729 m 283 806 q 185 828 242 806 q 111 851 129 851 q 69 804 69 851 l -72 804 q -27 953 -72 896 q 92 1010 18 1010 q 191 987 136 1010 q 263 964 246 964 q 303 1011 303 964 l 444 1011 q 401 861 444 917 q 283 806 357 806 z "},"Ī":{"ha":410,"x_min":8,"x_max":399,"o":"m 324 972 l 324 0 l 86 0 l 86 972 l 324 972 m 8 1036 l 8 1201 l 399 1201 l 399 1036 l 8 1036 z "},"ī":{"ha":365,"x_min":-11,"x_max":379,"o":"m 299 729 l 299 0 l 67 0 l 67 729 l 299 729 m -11 821 l -11 986 l 379 986 l 379 821 l -11 821 z "},"Ĭ":{"ha":410,"x_min":-21,"x_max":433,"o":"m 324 972 l 324 0 l 86 0 l 86 972 l 324 972 m 206 1026 q 40 1085 100 1026 q -21 1238 -21 1143 l 142 1238 q 206 1158 142 1158 q 271 1238 271 1158 l 433 1238 q 373 1085 433 1143 q 206 1026 313 1026 z "},"ĭ":{"ha":365,"x_min":-42,"x_max":413,"o":"m 299 729 l 299 0 l 67 0 l 67 729 l 299 729 m 185 803 q 19 861 79 803 q -42 1014 -42 919 l 121 1014 q 185 935 121 935 q 250 1014 250 935 l 413 1014 q 352 861 413 919 q 185 803 292 803 z "},"Į":{"ha":410,"x_min":69,"x_max":324,"o":"m 178 0 l 86 0 l 86 972 l 324 972 l 324 0 q 258 -76 258 -29 q 278 -117 258 -104 q 321 -129 297 -129 l 321 -282 q 228 -293 292 -293 q 115 -258 161 -293 q 69 -156 69 -224 q 103 -59 69 -100 q 178 0 138 -18 z "},"į":{"ha":365,"x_min":44,"x_max":314,"o":"m 153 0 l 67 0 l 67 729 l 299 729 l 299 0 q 233 -76 233 -29 q 253 -117 233 -104 q 296 -129 272 -129 l 296 -282 q 203 -293 267 -293 q 90 -258 136 -293 q 44 -156 44 -224 q 78 -59 44 -100 q 153 0 113 -18 m 275 803 q 256 783 275 803 q 181 764 236 764 q 87 803 125 764 q 49 896 49 842 q 87 990 49 951 q 181 1029 125 1029 q 275 990 236 1029 q 314 896 314 951 q 275 803 314 842 z "},"İ":{"ha":410,"x_min":86,"x_max":329,"o":"m 324 972 l 324 0 l 86 0 l 86 972 l 324 972 m 208 1010 q 124 1045 160 1010 q 89 1129 89 1081 q 124 1215 89 1179 q 208 1250 160 1250 q 294 1215 258 1250 q 329 1129 329 1179 q 294 1045 329 1081 q 208 1010 258 1010 z "},"ı":{"ha":365,"x_min":67,"x_max":299,"o":"m 299 729 l 299 0 l 67 0 l 67 729 l 299 729 z "},"Ĳ":{"ha":950,"x_min":86,"x_max":864,"o":"m 324 972 l 324 0 l 86 0 l 86 972 l 324 972 m 864 972 l 864 253 q 782 53 864 115 q 569 -8 700 -8 q 436 7 500 -8 l 464 217 q 539 210 501 210 q 604 234 582 210 q 626 297 626 258 l 626 972 l 864 972 z "},"ĳ":{"ha":731,"x_min":51,"x_max":676,"o":"m 299 729 l 299 0 l 67 0 l 67 729 l 299 729 m 274 809 q 255 791 274 809 q 181 774 236 774 q 88 809 125 774 q 51 899 51 844 q 88 990 51 954 q 181 1025 125 1025 q 274 989 236 1025 q 311 899 311 953 q 274 809 311 844 m 664 729 l 664 -3 q 358 -267 664 -267 l 307 -262 l 307 -67 q 340 -69 325 -69 q 432 8 432 -69 l 432 729 l 664 729 m 639 809 q 620 791 639 809 q 546 774 601 774 q 453 809 490 774 q 417 899 417 844 q 453 990 417 954 q 546 1025 490 1025 q 639 989 601 1025 q 676 899 676 953 q 639 809 676 844 z "},"Ĵ":{"ha":540,"x_min":26,"x_max":564,"o":"m 454 972 l 454 253 q 372 53 454 115 q 160 -8 290 -8 q 26 7 90 -8 l 54 217 q 129 210 92 210 q 194 234 172 210 q 217 297 217 258 l 217 972 l 454 972 m 197 1222 l 431 1222 l 564 1021 l 372 1021 l 315 1111 l 257 1021 l 64 1021 l 197 1222 z "},"ĵ":{"ha":365,"x_min":-67,"x_max":433,"o":"m 299 729 l 299 -3 q -7 -267 299 -267 l -58 -262 l -58 -67 q -25 -69 -40 -69 q 67 8 67 -69 l 67 729 l 299 729 m 67 1007 l 300 1007 l 433 806 l 242 806 l 185 896 l 126 806 l -67 806 l 67 1007 z "},"Ķ":{"ha":889,"x_min":86,"x_max":879,"o":"m 324 972 l 324 597 l 607 972 l 872 972 l 508 507 l 879 0 l 607 0 l 324 392 l 324 0 l 86 0 l 86 972 l 324 972 m 342 -357 q 413 -268 397 -318 q 346 -226 369 -258 q 322 -154 322 -193 q 358 -72 322 -106 q 442 -37 393 -37 q 531 -75 496 -37 q 567 -175 567 -112 q 525 -326 567 -253 q 418 -442 483 -399 l 342 -357 z "},"ķ":{"ha":776,"x_min":67,"x_max":775,"o":"m 756 729 l 521 396 l 775 0 l 503 0 l 299 340 l 299 0 l 67 0 l 67 1004 l 299 1004 l 299 436 l 496 729 l 756 729 m 285 -357 q 356 -268 340 -318 q 289 -226 313 -258 q 265 -154 265 -193 q 301 -72 265 -106 q 385 -37 336 -37 q 474 -75 439 -37 q 510 -175 510 -112 q 468 -326 510 -253 q 361 -442 426 -399 l 285 -357 z "},"ĸ":{"ha":776,"x_min":67,"x_max":775,"o":"m 756 729 l 521 388 l 775 0 l 503 0 l 299 332 l 299 0 l 67 0 l 67 729 l 299 729 l 299 428 l 496 729 l 756 729 z "},"Ĺ":{"ha":636,"x_min":86,"x_max":615,"o":"m 615 0 l 86 0 l 86 972 l 324 972 l 324 213 l 615 213 l 615 0 m 199 1222 l 439 1222 l 300 1021 l 107 1021 l 199 1222 z "},"ĺ":{"ha":365,"x_min":67,"x_max":418,"o":"m 67 0 l 67 1004 l 299 1004 l 299 0 l 67 0 m 178 1243 l 418 1243 l 279 1042 l 86 1042 l 178 1243 z "},"Ļ":{"ha":636,"x_min":86,"x_max":615,"o":"m 615 0 l 86 0 l 86 972 l 324 972 l 324 213 l 615 213 l 615 0 m 231 -357 q 301 -268 286 -318 q 235 -226 258 -258 q 211 -154 211 -193 q 247 -72 211 -106 q 331 -37 282 -37 q 420 -75 385 -37 q 456 -175 456 -112 q 414 -326 456 -253 q 307 -442 372 -399 l 231 -357 z "},"ļ":{"ha":365,"x_min":61,"x_max":306,"o":"m 67 0 l 67 1004 l 299 1004 l 299 0 l 67 0 m 81 -357 q 151 -268 136 -318 q 85 -226 108 -258 q 61 -154 61 -193 q 97 -72 61 -106 q 181 -37 132 -37 q 270 -75 235 -37 q 306 -175 306 -112 q 264 -326 306 -253 q 157 -442 222 -399 l 81 -357 z "},"Ľ":{"ha":638,"x_min":86,"x_max":615,"o":"m 404 731 l 414 972 l 606 972 l 542 731 l 404 731 m 615 0 l 86 0 l 86 972 l 324 972 l 324 213 l 615 213 l 615 0 z "},"ľ":{"ha":369,"x_min":67,"x_max":550,"o":"m 349 763 l 358 1004 l 550 1004 l 486 763 l 349 763 m 67 0 l 67 1004 l 299 1004 l 299 0 l 67 0 z "},"Ŀ":{"ha":636,"x_min":86,"x_max":667,"o":"m 615 0 l 86 0 l 86 972 l 324 972 l 324 213 l 615 213 l 615 0 m 626 414 q 605 394 626 414 q 528 374 585 374 q 431 414 471 374 q 390 511 390 454 q 431 609 390 568 q 528 650 471 650 q 626 609 585 650 q 667 511 667 568 q 626 414 667 454 z "},"ŀ":{"ha":614,"x_min":67,"x_max":640,"o":"m 67 0 l 67 1004 l 299 1004 l 299 0 l 67 0 m 599 414 q 579 394 599 414 q 501 374 558 374 q 404 414 444 374 q 364 511 364 454 q 404 609 364 568 q 501 650 444 650 q 599 609 558 650 q 640 511 640 568 q 599 414 640 454 z "},"Ł":{"ha":636,"x_min":10,"x_max":615,"o":"m 615 0 l 86 0 l 86 276 l 10 236 l 10 453 l 86 494 l 86 972 l 324 972 l 324 625 l 461 701 l 461 478 l 324 404 l 324 213 l 615 213 l 615 0 z "},"ł":{"ha":446,"x_min":35,"x_max":413,"o":"m 101 546 l 101 1004 l 333 1004 l 333 681 l 413 726 l 413 503 l 333 457 l 333 0 l 101 0 l 101 326 l 35 289 l 35 508 l 101 546 z "},"Ń":{"ha":997,"x_min":83,"x_max":914,"o":"m 678 0 l 317 596 l 317 0 l 83 0 l 83 972 l 325 972 l 681 369 l 681 972 l 914 972 l 914 0 l 678 0 m 490 1222 l 731 1222 l 592 1021 l 399 1021 l 490 1222 z "},"ń":{"ha":788,"x_min":67,"x_max":726,"o":"m 494 0 l 494 435 q 468 512 494 485 q 399 539 442 539 q 325 510 351 539 q 299 435 299 481 l 299 0 l 67 0 l 67 729 l 293 729 l 293 654 q 365 719 317 692 q 476 747 414 747 q 590 725 542 747 q 663 670 638 703 q 703 588 689 638 q 722 498 718 539 q 726 404 726 457 l 726 0 l 494 0 m 382 1007 l 622 1007 l 483 806 l 290 806 l 382 1007 z "},"Ņ":{"ha":997,"x_min":83,"x_max":914,"o":"m 678 0 l 317 596 l 317 0 l 83 0 l 83 972 l 325 972 l 681 369 l 681 972 l 914 972 l 914 0 l 678 0 m 396 -357 q 467 -268 451 -318 q 400 -226 424 -258 q 376 -154 376 -193 q 412 -72 376 -106 q 496 -37 447 -37 q 585 -75 550 -37 q 621 -175 621 -112 q 579 -326 621 -253 q 472 -442 538 -399 l 396 -357 z "},"ņ":{"ha":788,"x_min":67,"x_max":726,"o":"m 494 0 l 494 435 q 468 512 494 485 q 399 539 442 539 q 325 510 351 539 q 299 435 299 481 l 299 0 l 67 0 l 67 729 l 293 729 l 293 654 q 365 719 317 692 q 476 747 414 747 q 590 725 542 747 q 663 670 638 703 q 703 588 689 638 q 722 498 718 539 q 726 404 726 457 l 726 0 l 494 0 m 292 -357 q 363 -268 347 -318 q 296 -226 319 -258 q 272 -154 272 -193 q 308 -72 272 -106 q 392 -37 343 -37 q 481 -75 446 -37 q 517 -175 517 -112 q 475 -326 517 -253 q 368 -442 433 -399 l 292 -357 z "},"Ň":{"ha":997,"x_min":83,"x_max":914,"o":"m 678 0 l 317 596 l 317 0 l 83 0 l 83 972 l 325 972 l 681 369 l 681 972 l 914 972 l 914 0 l 678 0 m 626 1021 l 393 1021 l 260 1222 l 453 1222 l 511 1132 l 568 1222 l 760 1222 l 626 1021 z "},"ň":{"ha":788,"x_min":67,"x_max":726,"o":"m 494 0 l 494 435 q 468 512 494 485 q 399 539 442 539 q 325 510 351 539 q 299 435 299 481 l 299 0 l 67 0 l 67 729 l 293 729 l 293 654 q 365 719 317 692 q 476 747 414 747 q 590 725 542 747 q 663 670 638 703 q 703 588 689 638 q 722 498 718 539 q 726 404 726 457 l 726 0 l 494 0 m 510 806 l 276 806 l 143 1007 l 336 1007 l 394 917 l 451 1007 l 643 1007 l 510 806 z "},"ŉ":{"ha":928,"x_min":-58,"x_max":867,"o":"m 635 0 l 635 435 q 608 512 635 485 q 539 539 582 539 q 465 510 492 539 q 439 435 439 481 l 439 0 l 207 0 l 207 729 l 433 729 l 433 654 q 506 719 457 692 q 617 747 554 747 q 730 725 682 747 q 803 670 778 703 q 844 588 829 638 q 863 498 858 539 q 867 404 867 457 l 867 0 l 635 0 m -39 700 q 32 789 17 739 q -35 831 -11 799 q -58 903 -58 864 q -23 985 -58 951 q 61 1019 13 1019 q 151 982 115 1019 q 186 882 186 944 q 144 731 186 804 q 38 615 103 658 l -39 700 z "},"Ŋ":{"ha":997,"x_min":83,"x_max":914,"o":"m 914 972 l 914 -6 q 832 -205 914 -143 q 619 -267 750 -267 q 486 -251 550 -267 l 514 -42 q 589 -49 558 -49 q 678 0 663 -49 l 317 596 l 317 0 l 83 0 l 83 972 l 325 972 l 681 369 l 681 972 l 914 972 z "},"ŋ":{"ha":788,"x_min":67,"x_max":726,"o":"m 494 0 l 494 435 q 468 512 494 485 q 399 539 442 539 q 325 510 351 539 q 299 435 299 481 l 299 0 l 67 0 l 67 729 l 293 729 l 293 654 q 365 719 317 692 q 476 747 414 747 q 590 725 542 747 q 663 670 638 703 q 703 588 689 638 q 722 498 718 539 q 726 404 726 457 l 726 -3 q 421 -267 726 -267 q 388 -265 406 -267 q 369 -264 371 -264 l 369 -69 l 403 -69 q 494 0 488 -69 z "},"Ō":{"ha":1094,"x_min":38,"x_max":1057,"o":"m 915 126 q 844 54 915 126 q 547 -18 774 -18 q 179 126 321 -18 q 38 488 38 269 q 179 847 38 703 q 547 990 321 990 q 915 847 774 990 q 1057 488 1057 703 q 915 126 1057 269 m 736 688 q 699 728 736 688 q 547 768 663 768 q 358 688 432 768 q 285 488 285 608 q 358 284 285 364 q 547 204 432 204 q 736 284 663 204 q 810 488 810 364 q 736 688 810 608 m 351 1036 l 351 1201 l 742 1201 l 742 1036 l 351 1036 z "},"ō":{"ha":854,"x_min":29,"x_max":825,"o":"m 140 90 q 85 143 140 90 q 29 363 29 197 q 142 638 29 528 q 425 747 256 747 q 713 640 600 747 q 825 365 825 532 q 711 91 825 200 q 425 -18 597 -18 q 140 90 251 -18 m 261 363 q 308 235 261 283 q 425 186 354 186 q 545 237 497 186 q 593 365 593 288 q 545 494 593 444 q 425 543 497 543 q 307 493 353 543 q 261 363 261 443 m 232 821 l 232 986 l 622 986 l 622 821 l 232 821 z "},"Ŏ":{"ha":1094,"x_min":38,"x_max":1057,"o":"m 915 126 q 844 54 915 126 q 547 -18 774 -18 q 179 126 321 -18 q 38 488 38 269 q 179 847 38 703 q 547 990 321 990 q 915 847 774 990 q 1057 488 1057 703 q 915 126 1057 269 m 736 688 q 699 728 736 688 q 547 768 663 768 q 358 688 432 768 q 285 488 285 608 q 358 284 285 364 q 547 204 432 204 q 736 284 663 204 q 810 488 810 364 q 736 688 810 608 m 546 1026 q 380 1085 440 1026 q 319 1238 319 1143 l 482 1238 q 546 1158 482 1158 q 611 1238 611 1158 l 774 1238 q 713 1085 774 1143 q 546 1026 653 1026 z "},"ŏ":{"ha":854,"x_min":29,"x_max":825,"o":"m 140 90 q 85 143 140 90 q 29 363 29 197 q 142 638 29 528 q 425 747 256 747 q 713 640 600 747 q 825 365 825 532 q 711 91 825 200 q 425 -18 597 -18 q 140 90 251 -18 m 261 363 q 308 235 261 283 q 425 186 354 186 q 545 237 497 186 q 593 365 593 288 q 545 494 593 444 q 425 543 497 543 q 307 493 353 543 q 261 363 261 443 m 426 803 q 260 861 321 803 q 200 1014 200 919 l 363 1014 q 426 935 363 935 q 492 1014 492 935 l 654 1014 q 594 861 654 919 q 426 803 533 803 z "},"Ő":{"ha":1094,"x_min":38,"x_max":1057,"o":"m 915 126 q 844 54 915 126 q 547 -18 774 -18 q 179 126 321 -18 q 38 488 38 269 q 179 847 38 703 q 547 990 321 990 q 915 847 774 990 q 1057 488 1057 703 q 915 126 1057 269 m 736 688 q 699 728 736 688 q 547 768 663 768 q 358 688 432 768 q 285 488 285 608 q 358 284 285 364 q 547 204 432 204 q 736 284 663 204 q 810 488 810 364 q 736 688 810 608 m 407 1222 l 625 1222 l 486 1021 l 315 1021 l 407 1222 m 675 1222 l 893 1222 l 754 1021 l 583 1021 l 675 1222 z "},"ő":{"ha":854,"x_min":29,"x_max":825,"o":"m 140 90 q 85 143 140 90 q 29 363 29 197 q 142 638 29 528 q 425 747 256 747 q 713 640 600 747 q 825 365 825 532 q 711 91 825 200 q 425 -18 597 -18 q 140 90 251 -18 m 261 363 q 308 235 261 283 q 425 186 354 186 q 545 237 497 186 q 593 365 593 288 q 545 494 593 444 q 425 543 497 543 q 307 493 353 543 q 261 363 261 443 m 293 1007 l 511 1007 l 372 806 l 201 806 l 293 1007 m 561 1007 l 779 1007 l 640 806 l 469 806 l 561 1007 z "},"Œ":{"ha":1400,"x_min":38,"x_max":1342,"o":"m 547 -18 q 179 126 321 -18 q 38 488 38 269 q 179 847 38 703 q 547 990 321 990 q 692 972 619 990 l 1331 972 l 1331 760 l 983 760 q 1046 597 1029 683 l 1289 597 l 1289 386 l 1049 386 q 983 213 1033 296 l 1342 213 l 1342 0 l 692 0 q 547 -18 619 -18 m 736 688 q 699 728 736 688 q 547 768 663 768 q 358 688 432 768 q 285 488 285 608 q 358 284 285 364 q 547 204 432 204 q 736 284 663 204 q 810 488 810 364 q 736 688 810 608 z "},"œ":{"ha":1328,"x_min":29,"x_max":1301,"o":"m 1300 304 l 822 304 q 870 219 826 254 q 976 183 914 183 q 1073 209 1033 183 q 1129 261 1113 235 l 1282 143 q 1176 37 1257 92 q 972 -18 1096 -18 q 701 82 804 -18 q 425 -18 590 -18 q 140 90 251 -18 q 29 363 29 197 q 142 638 29 528 q 425 747 256 747 q 701 649 592 747 q 943 747 797 747 q 1208 642 1115 747 q 1301 350 1301 538 q 1300 304 1301 321 m 261 363 q 308 235 261 283 q 425 186 354 186 q 545 237 497 186 q 593 365 593 288 q 545 494 593 444 q 425 543 497 543 q 307 493 353 543 q 261 363 261 443 m 1031 528 q 1016 544 1031 528 q 947 560 1000 560 q 864 527 894 560 q 829 451 833 494 l 1065 451 q 1031 528 1063 497 z "},"Ŕ":{"ha":840,"x_min":86,"x_max":832,"o":"m 743 674 q 708 522 743 590 q 608 417 674 453 l 832 0 l 569 0 l 396 360 l 324 360 l 324 0 l 86 0 l 86 972 l 403 972 q 743 674 743 972 m 383 768 l 324 768 l 324 558 l 394 558 q 472 587 443 558 q 500 665 500 615 q 383 768 500 768 m 356 1222 l 596 1222 l 457 1021 l 264 1021 l 356 1222 z "},"ŕ":{"ha":513,"x_min":67,"x_max":500,"o":"m 486 747 l 486 511 q 449 514 467 514 q 299 322 299 514 l 299 0 l 67 0 l 67 729 l 293 729 l 293 632 q 486 747 350 747 m 260 1007 l 500 1007 l 361 806 l 168 806 l 260 1007 z "},"Ŗ":{"ha":840,"x_min":86,"x_max":832,"o":"m 743 674 q 708 522 743 590 q 608 417 674 453 l 832 0 l 569 0 l 396 360 l 324 360 l 324 0 l 86 0 l 86 972 l 403 972 q 743 674 743 972 m 383 768 l 324 768 l 324 558 l 394 558 q 472 587 443 558 q 500 665 500 615 q 383 768 500 768 m 317 -357 q 388 -268 372 -318 q 321 -226 344 -258 q 297 -154 297 -193 q 333 -72 297 -106 q 417 -37 368 -37 q 506 -75 471 -37 q 542 -175 542 -112 q 500 -326 542 -253 q 393 -442 458 -399 l 317 -357 z "},"ŗ":{"ha":513,"x_min":67,"x_max":486,"o":"m 486 747 l 486 511 q 449 514 467 514 q 299 322 299 514 l 299 0 l 67 0 l 67 729 l 293 729 l 293 632 q 486 747 350 747 m 118 -357 q 189 -268 174 -318 q 122 -226 146 -258 q 99 -154 99 -193 q 134 -72 99 -106 q 218 -37 169 -37 q 308 -75 272 -37 q 343 -175 343 -112 q 301 -326 343 -253 q 194 -442 260 -399 l 118 -357 z "},"Ř":{"ha":840,"x_min":86,"x_max":832,"o":"m 743 674 q 708 522 743 590 q 608 417 674 453 l 832 0 l 569 0 l 396 360 l 324 360 l 324 0 l 86 0 l 86 972 l 403 972 q 743 674 743 972 m 383 768 l 324 768 l 324 558 l 394 558 q 472 587 443 558 q 500 665 500 615 q 383 768 500 768 m 499 1021 l 265 1021 l 132 1222 l 325 1222 l 383 1132 l 440 1222 l 632 1222 l 499 1021 z "},"ř":{"ha":513,"x_min":7,"x_max":507,"o":"m 486 747 l 486 511 q 449 514 467 514 q 299 322 299 514 l 299 0 l 67 0 l 67 729 l 293 729 l 293 632 q 486 747 350 747 m 374 806 l 140 806 l 7 1007 l 200 1007 l 258 917 l 315 1007 l 507 1007 l 374 806 z "},"Ś":{"ha":735,"x_min":24,"x_max":694,"o":"m 371 990 q 503 967 444 990 q 598 904 563 943 q 653 833 633 865 q 685 765 674 800 l 488 675 q 463 720 475 703 q 426 754 451 738 q 365 771 400 771 q 310 752 331 771 q 289 706 289 733 q 331 641 289 669 q 432 587 372 613 q 551 528 492 561 q 653 433 611 494 q 694 290 694 372 q 603 67 694 153 q 354 -18 511 -18 q 215 7 278 -18 q 115 72 153 32 q 56 146 78 111 q 24 214 35 181 l 222 313 q 282 235 243 267 q 368 204 321 204 q 454 272 454 204 q 424 327 454 301 q 350 372 394 353 q 253 419 306 390 q 156 481 200 447 q 81 571 111 514 q 51 701 51 628 q 139 911 51 832 q 371 990 226 990 m 343 1222 l 583 1222 l 444 1021 l 251 1021 l 343 1222 z "},"ś":{"ha":617,"x_min":19,"x_max":597,"o":"m 300 -18 q 131 19 204 -18 q 19 107 57 57 l 150 233 q 311 169 222 169 q 376 210 376 169 q 351 244 376 229 q 290 269 326 258 q 210 298 253 279 q 130 342 167 317 q 68 413 93 367 q 43 522 43 460 q 122 686 43 625 q 324 747 201 747 q 585 622 493 747 l 435 504 q 314 561 378 561 q 261 525 261 561 q 296 484 261 500 q 380 453 331 468 q 478 417 429 439 q 563 345 528 394 q 597 222 597 296 q 513 47 597 113 q 300 -18 428 -18 m 289 1007 l 529 1007 l 390 806 l 197 806 l 289 1007 z "},"Ŝ":{"ha":735,"x_min":24,"x_max":694,"o":"m 371 990 q 503 967 444 990 q 598 904 563 943 q 653 833 633 865 q 685 765 674 800 l 488 675 q 463 720 475 703 q 426 754 451 738 q 365 771 400 771 q 310 752 331 771 q 289 706 289 733 q 331 641 289 669 q 432 587 372 613 q 551 528 492 561 q 653 433 611 494 q 694 290 694 372 q 603 67 694 153 q 354 -18 511 -18 q 215 7 278 -18 q 115 72 153 32 q 56 146 78 111 q 24 214 35 181 l 222 313 q 282 235 243 267 q 368 204 321 204 q 454 272 454 204 q 424 327 454 301 q 350 372 394 353 q 253 419 306 390 q 156 481 200 447 q 81 571 111 514 q 51 701 51 628 q 139 911 51 832 q 371 990 226 990 m 257 1222 l 490 1222 l 624 1021 l 432 1021 l 375 1111 l 317 1021 l 124 1021 l 257 1222 z "},"ŝ":{"ha":617,"x_min":19,"x_max":597,"o":"m 300 -18 q 131 19 204 -18 q 19 107 57 57 l 150 233 q 311 169 222 169 q 376 210 376 169 q 351 244 376 229 q 290 269 326 258 q 210 298 253 279 q 130 342 167 317 q 68 413 93 367 q 43 522 43 460 q 122 686 43 625 q 324 747 201 747 q 585 622 493 747 l 435 504 q 314 561 378 561 q 261 525 261 561 q 296 484 261 500 q 380 453 331 468 q 478 417 429 439 q 563 345 528 394 q 597 222 597 296 q 513 47 597 113 q 300 -18 428 -18 m 210 1007 l 443 1007 l 576 806 l 385 806 l 328 896 l 269 806 l 76 806 l 210 1007 z "},"Ş":{"ha":735,"x_min":24,"x_max":694,"o":"m 371 990 q 503 967 444 990 q 598 904 563 943 q 653 833 633 865 q 685 765 674 800 l 488 675 q 463 720 475 703 q 426 754 451 738 q 365 771 400 771 q 310 752 331 771 q 289 706 289 733 q 331 641 289 669 q 432 587 372 613 q 551 528 492 561 q 653 433 611 494 q 694 290 694 372 q 619 85 694 168 q 415 -14 544 1 l 411 -49 q 514 -181 514 -72 q 465 -292 514 -254 q 335 -329 415 -329 q 243 -312 290 -329 l 271 -201 q 318 -208 299 -208 q 355 -198 340 -208 q 369 -169 369 -187 q 307 -133 369 -133 l 282 -135 l 301 -14 q 185 21 238 -6 q 102 84 133 47 q 52 152 71 121 q 24 214 33 183 l 222 313 q 282 235 243 267 q 368 204 321 204 q 454 272 454 204 q 424 327 454 301 q 350 372 394 353 q 253 419 306 390 q 156 481 200 447 q 81 571 111 514 q 51 701 51 628 q 139 911 51 832 q 371 990 226 990 z "},"ş":{"ha":617,"x_min":19,"x_max":597,"o":"m 279 -329 q 188 -312 235 -329 l 215 -201 q 263 -208 243 -208 q 299 -198 285 -208 q 314 -169 314 -187 q 251 -133 314 -133 l 226 -135 l 246 -14 q 110 30 168 -4 q 19 107 51 64 l 150 233 q 311 169 222 169 q 376 210 376 169 q 351 244 376 229 q 290 269 326 258 q 210 298 253 279 q 130 342 167 317 q 68 413 93 367 q 43 522 43 460 q 122 686 43 625 q 324 747 201 747 q 585 622 493 747 l 435 504 q 314 561 378 561 q 261 525 261 561 q 296 484 261 500 q 380 453 331 468 q 478 417 429 439 q 563 345 528 394 q 597 222 597 296 q 531 64 597 126 q 360 -14 465 1 l 356 -49 q 458 -181 458 -72 q 409 -292 458 -254 q 279 -329 360 -329 z "},"Š":{"ha":735,"x_min":24,"x_max":694,"o":"m 371 990 q 503 967 444 990 q 598 904 563 943 q 653 833 633 865 q 685 765 674 800 l 488 675 q 463 720 475 703 q 426 754 451 738 q 365 771 400 771 q 310 752 331 771 q 289 706 289 733 q 331 641 289 669 q 432 587 372 613 q 551 528 492 561 q 653 433 611 494 q 694 290 694 372 q 603 67 694 153 q 354 -18 511 -18 q 215 7 278 -18 q 115 72 153 32 q 56 146 78 111 q 24 214 35 181 l 222 313 q 282 235 243 267 q 368 204 321 204 q 454 272 454 204 q 424 327 454 301 q 350 372 394 353 q 253 419 306 390 q 156 481 200 447 q 81 571 111 514 q 51 701 51 628 q 139 911 51 832 q 371 990 226 990 m 483 1021 l 250 1021 l 117 1222 l 310 1222 l 368 1132 l 425 1222 l 617 1222 l 483 1021 z "},"š":{"ha":617,"x_min":19,"x_max":597,"o":"m 300 -18 q 131 19 204 -18 q 19 107 57 57 l 150 233 q 311 169 222 169 q 376 210 376 169 q 351 244 376 229 q 290 269 326 258 q 210 298 253 279 q 130 342 167 317 q 68 413 93 367 q 43 522 43 460 q 122 686 43 625 q 324 747 201 747 q 585 622 493 747 l 435 504 q 314 561 378 561 q 261 525 261 561 q 296 484 261 500 q 380 453 331 468 q 478 417 429 439 q 563 345 528 394 q 597 222 597 296 q 513 47 597 113 q 300 -18 428 -18 m 436 806 l 203 806 l 69 1007 l 263 1007 l 321 917 l 378 1007 l 569 1007 l 436 806 z "},"Ţ":{"ha":710,"x_min":26,"x_max":683,"o":"m 683 760 l 474 760 l 474 0 l 236 0 l 236 760 l 26 760 l 26 972 l 683 972 l 683 760 m 247 -357 q 318 -268 303 -318 q 251 -226 275 -258 q 228 -154 228 -193 q 263 -72 228 -106 q 347 -37 299 -37 q 437 -75 401 -37 q 472 -175 472 -112 q 431 -326 472 -253 q 324 -442 389 -399 l 247 -357 z "},"Ț":{"ha":710,"x_min":26,"x_max":683,"o":"m 683 760 l 474 760 l 474 0 l 236 0 l 236 760 l 26 760 l 26 972 l 683 972 l 683 760 m 247 -357 q 318 -268 303 -318 q 251 -226 275 -258 q 228 -154 228 -193 q 263 -72 228 -106 q 347 -37 299 -37 q 437 -75 401 -37 q 472 -175 472 -112 q 431 -326 472 -253 q 324 -442 389 -399 l 247 -357 z "},"ţ":{"ha":489,"x_min":15,"x_max":447,"o":"m 318 883 l 318 729 l 442 729 l 442 542 l 318 542 l 318 274 q 408 194 318 194 q 447 196 432 194 l 447 -3 q 358 -11 417 -11 q 155 58 224 -11 q 86 285 86 128 l 86 542 l 15 542 l 15 729 l 86 729 l 86 883 l 318 883 m 160 -357 q 231 -268 215 -318 q 164 -226 188 -258 q 140 -154 140 -193 q 176 -72 140 -106 q 260 -37 211 -37 q 349 -75 314 -37 q 385 -175 385 -112 q 343 -326 385 -253 q 236 -442 301 -399 l 160 -357 z "},"ț":{"ha":489,"x_min":15,"x_max":447,"o":"m 318 883 l 318 729 l 442 729 l 442 542 l 318 542 l 318 274 q 408 194 318 194 q 447 196 432 194 l 447 -3 q 358 -11 417 -11 q 155 58 224 -11 q 86 285 86 128 l 86 542 l 15 542 l 15 729 l 86 729 l 86 883 l 318 883 m 160 -357 q 231 -268 215 -318 q 164 -226 188 -258 q 140 -154 140 -193 q 176 -72 140 -106 q 260 -37 211 -37 q 349 -75 314 -37 q 385 -175 385 -112 q 343 -326 385 -253 q 236 -442 301 -399 l 160 -357 z "},"Ť":{"ha":710,"x_min":26,"x_max":683,"o":"m 683 760 l 474 760 l 474 0 l 236 0 l 236 760 l 26 760 l 26 972 l 683 972 l 683 760 m 475 1021 l 242 1021 l 108 1222 l 301 1222 l 360 1132 l 417 1222 l 608 1222 l 475 1021 z "},"ť":{"ha":490,"x_min":15,"x_max":592,"o":"m 390 763 l 400 1004 l 592 1004 l 528 763 l 390 763 m 318 883 l 318 729 l 442 729 l 442 542 l 318 542 l 318 274 q 408 194 318 194 q 447 196 432 194 l 447 -3 q 358 -11 417 -11 q 155 58 224 -11 q 86 285 86 128 l 86 542 l 15 542 l 15 729 l 86 729 l 86 883 l 318 883 z "},"Ŧ":{"ha":710,"x_min":26,"x_max":683,"o":"m 683 760 l 474 760 l 474 579 l 632 579 l 632 408 l 474 408 l 474 0 l 236 0 l 236 408 l 82 408 l 82 579 l 236 579 l 236 760 l 26 760 l 26 972 l 683 972 l 683 760 z "},"ŧ":{"ha":489,"x_min":8,"x_max":447,"o":"m 318 883 l 318 729 l 442 729 l 442 542 l 318 542 l 318 456 l 428 456 l 428 307 l 318 307 l 318 274 q 346 210 318 226 q 421 194 374 194 l 447 194 l 447 -3 q 358 -11 417 -11 q 155 58 224 -11 q 86 285 86 128 l 86 307 l 8 307 l 8 456 l 86 456 l 86 542 l 15 542 l 15 729 l 86 729 l 86 883 l 318 883 z "},"Ũ":{"ha":978,"x_min":83,"x_max":894,"o":"m 489 -17 q 190 90 297 -17 q 83 374 83 196 l 83 972 l 321 972 l 321 374 q 366 249 321 294 q 490 203 411 203 q 613 249 569 203 q 657 375 657 294 l 657 972 l 894 972 l 894 375 q 786 92 894 200 q 489 -17 678 -17 m 596 1024 q 498 1047 554 1024 q 424 1069 442 1069 q 382 1022 382 1069 l 240 1022 q 285 1171 240 1114 q 404 1228 331 1228 q 503 1205 449 1228 q 575 1182 558 1182 q 615 1229 615 1182 l 757 1229 q 713 1079 757 1135 q 596 1024 669 1024 z "},"ũ":{"ha":782,"x_min":61,"x_max":721,"o":"m 293 729 l 293 294 q 319 217 293 244 q 389 190 346 190 q 463 219 436 190 q 489 294 489 249 l 489 729 l 721 729 l 721 0 l 494 0 l 494 75 q 422 10 471 38 q 311 -18 374 -18 q 198 4 246 -18 q 124 59 150 26 q 84 141 99 92 q 65 231 69 190 q 61 325 61 272 l 61 729 l 293 729 m 492 806 q 394 828 450 806 q 319 851 338 851 q 278 804 278 851 l 136 804 q 181 953 136 896 q 300 1010 226 1010 q 399 987 344 1010 q 471 964 454 964 q 511 1011 511 964 l 653 1011 q 609 861 653 917 q 492 806 565 806 z "},"Ū":{"ha":978,"x_min":83,"x_max":894,"o":"m 489 -17 q 190 90 297 -17 q 83 374 83 196 l 83 972 l 321 972 l 321 374 q 366 249 321 294 q 490 203 411 203 q 613 249 569 203 q 657 375 657 294 l 657 972 l 894 972 l 894 375 q 786 92 894 200 q 489 -17 678 -17 m 293 1036 l 293 1201 l 683 1201 l 683 1036 l 293 1036 z "},"ū":{"ha":782,"x_min":61,"x_max":721,"o":"m 293 729 l 293 294 q 319 217 293 244 q 389 190 346 190 q 463 219 436 190 q 489 294 489 249 l 489 729 l 721 729 l 721 0 l 494 0 l 494 75 q 422 10 471 38 q 311 -18 374 -18 q 198 4 246 -18 q 124 59 150 26 q 84 141 99 92 q 65 231 69 190 q 61 325 61 272 l 61 729 l 293 729 m 201 821 l 201 986 l 592 986 l 592 821 l 201 821 z "},"Ŭ":{"ha":978,"x_min":83,"x_max":894,"o":"m 489 -17 q 190 90 297 -17 q 83 374 83 196 l 83 972 l 321 972 l 321 374 q 366 249 321 294 q 490 203 411 203 q 613 249 569 203 q 657 375 657 294 l 657 972 l 894 972 l 894 375 q 786 92 894 200 q 489 -17 678 -17 m 499 1026 q 333 1085 393 1026 q 272 1238 272 1143 l 435 1238 q 499 1158 435 1158 q 564 1238 564 1158 l 726 1238 q 666 1085 726 1143 q 499 1026 606 1026 z "},"ŭ":{"ha":782,"x_min":61,"x_max":721,"o":"m 293 729 l 293 294 q 319 217 293 244 q 389 190 346 190 q 463 219 436 190 q 489 294 489 249 l 489 729 l 721 729 l 721 0 l 494 0 l 494 75 q 422 10 471 38 q 311 -18 374 -18 q 198 4 246 -18 q 124 59 150 26 q 84 141 99 92 q 65 231 69 190 q 61 325 61 272 l 61 729 l 293 729 m 394 803 q 228 861 289 803 q 168 1014 168 919 l 331 1014 q 394 935 331 935 q 460 1014 460 935 l 622 1014 q 562 861 622 919 q 394 803 501 803 z "},"Ů":{"ha":978,"x_min":83,"x_max":894,"o":"m 489 -17 q 190 90 297 -17 q 83 374 83 196 l 83 972 l 321 972 l 321 374 q 366 249 321 294 q 490 203 411 203 q 613 249 569 203 q 657 375 657 294 l 657 972 l 894 972 l 894 375 q 786 92 894 200 q 489 -17 678 -17 m 490 1011 q 376 1052 422 1011 q 331 1157 331 1093 q 376 1263 331 1222 q 490 1304 422 1304 q 606 1263 560 1304 q 651 1158 651 1222 q 606 1052 651 1093 q 490 1011 560 1011 m 456 1120 q 463 1113 456 1120 q 492 1106 469 1106 q 528 1120 514 1106 q 542 1158 542 1135 q 528 1195 542 1181 q 492 1210 514 1210 q 456 1196 469 1210 q 442 1158 442 1182 q 456 1120 442 1135 z "},"ů":{"ha":782,"x_min":61,"x_max":721,"o":"m 293 729 l 293 294 q 319 217 293 244 q 389 190 346 190 q 463 219 436 190 q 489 294 489 249 l 489 729 l 721 729 l 721 0 l 494 0 l 494 75 q 422 10 471 38 q 311 -18 374 -18 q 198 4 246 -18 q 124 59 150 26 q 84 141 99 92 q 65 231 69 190 q 61 325 61 272 l 61 729 l 293 729 m 397 776 q 283 817 329 776 q 238 922 238 858 q 283 1028 238 988 q 397 1069 329 1069 q 513 1028 467 1069 q 558 924 558 988 q 513 817 558 858 q 397 776 467 776 m 363 885 q 369 878 363 885 q 399 871 376 871 q 435 885 421 871 q 449 924 449 900 q 435 960 449 946 q 399 975 421 975 q 363 961 376 975 q 349 924 349 947 q 363 885 349 900 z "},"Ű":{"ha":978,"x_min":83,"x_max":894,"o":"m 489 -17 q 190 90 297 -17 q 83 374 83 196 l 83 972 l 321 972 l 321 374 q 366 249 321 294 q 490 203 411 203 q 613 249 569 203 q 657 375 657 294 l 657 972 l 894 972 l 894 375 q 786 92 894 200 q 489 -17 678 -17 m 354 1222 l 572 1222 l 433 1021 l 263 1021 l 354 1222 m 622 1222 l 840 1222 l 701 1021 l 531 1021 l 622 1222 z "},"ű":{"ha":782,"x_min":61,"x_max":721,"o":"m 293 729 l 293 294 q 319 217 293 244 q 389 190 346 190 q 463 219 436 190 q 489 294 489 249 l 489 729 l 721 729 l 721 0 l 494 0 l 494 75 q 422 10 471 38 q 311 -18 374 -18 q 198 4 246 -18 q 124 59 150 26 q 84 141 99 92 q 65 231 69 190 q 61 325 61 272 l 61 729 l 293 729 m 232 1007 l 450 1007 l 311 806 l 140 806 l 232 1007 m 500 1007 l 718 1007 l 579 806 l 408 806 l 500 1007 z "},"Ų":{"ha":978,"x_min":83,"x_max":894,"o":"m 894 375 q 823 134 894 233 q 621 0 751 35 q 556 -76 556 -29 q 575 -117 556 -104 q 618 -129 594 -129 l 618 -282 q 525 -293 589 -293 q 413 -258 458 -293 q 367 -156 367 -224 q 449 -15 367 -71 q 179 101 275 -4 q 83 374 83 206 l 83 972 l 321 972 l 321 374 q 366 249 321 294 q 490 203 411 203 q 613 249 569 203 q 657 375 657 294 l 657 972 l 894 972 l 894 375 z "},"ų":{"ha":782,"x_min":61,"x_max":721,"o":"m 575 0 l 494 0 l 494 75 q 422 10 471 38 q 311 -18 374 -18 q 198 4 246 -18 q 124 59 150 26 q 84 141 99 92 q 65 231 69 190 q 61 325 61 272 l 61 729 l 293 729 l 293 294 q 319 217 293 244 q 389 190 346 190 q 463 219 436 190 q 489 294 489 249 l 489 729 l 721 729 l 721 0 q 656 -76 656 -29 q 675 -117 656 -104 q 718 -129 694 -129 l 718 -282 q 625 -293 689 -293 q 513 -258 558 -293 q 467 -156 467 -224 q 501 -59 467 -100 q 575 0 535 -18 z "},"Ŵ":{"ha":1381,"x_min":11,"x_max":1369,"o":"m 847 0 l 690 611 l 533 0 l 264 0 l 11 972 l 265 972 l 413 288 l 583 972 l 797 972 l 968 288 l 1115 972 l 1369 972 l 1117 0 l 847 0 m 574 1222 l 807 1222 l 940 1021 l 749 1021 l 692 1111 l 633 1021 l 440 1021 l 574 1222 z "},"ŵ":{"ha":1158,"x_min":10,"x_max":1149,"o":"m 683 0 l 579 413 l 475 0 l 214 0 l 10 729 l 263 729 l 361 253 l 471 729 l 688 729 l 797 253 l 896 729 l 1149 729 l 944 0 l 683 0 m 463 1007 l 696 1007 l 829 806 l 638 806 l 581 896 l 522 806 l 329 806 l 463 1007 z "},"Ŷ":{"ha":847,"x_min":8,"x_max":839,"o":"m 542 0 l 306 0 l 306 439 l 8 972 l 275 972 l 424 654 l 576 972 l 839 972 l 542 439 l 542 0 m 307 1222 l 540 1222 l 674 1021 l 482 1021 l 425 1111 l 367 1021 l 174 1021 l 307 1222 z "},"ŷ":{"ha":772,"x_min":8,"x_max":763,"o":"m 763 729 l 401 -249 l 182 -249 l 281 24 l 8 729 l 257 729 l 386 310 l 521 729 l 763 729 m 272 1007 l 506 1007 l 639 806 l 447 806 l 390 896 l 332 806 l 139 806 l 272 1007 z "},"Ÿ":{"ha":847,"x_min":8,"x_max":839,"o":"m 542 0 l 306 0 l 306 439 l 8 972 l 275 972 l 424 654 l 576 972 l 839 972 l 542 439 l 542 0 m 285 1022 q 208 1053 238 1022 q 178 1129 178 1085 q 208 1205 178 1174 q 285 1236 238 1236 q 361 1205 331 1236 q 392 1129 392 1174 q 361 1053 392 1085 q 285 1022 331 1022 m 564 1022 q 487 1053 517 1022 q 457 1129 457 1085 q 487 1205 457 1174 q 564 1236 517 1236 q 640 1205 610 1236 q 671 1129 671 1174 q 640 1053 671 1085 q 564 1022 610 1022 z "},"Ź":{"ha":844,"x_min":43,"x_max":797,"o":"m 797 0 l 43 0 l 43 151 l 474 763 l 54 763 l 54 972 l 793 972 l 793 822 l 358 210 l 797 210 l 797 0 m 386 1222 l 626 1222 l 488 1021 l 294 1021 l 386 1222 z "},"ź":{"ha":654,"x_min":38,"x_max":615,"o":"m 613 589 l 328 193 l 615 193 l 615 0 l 38 0 l 38 139 l 321 536 l 44 536 l 44 729 l 613 729 l 613 589 m 300 1007 l 540 1007 l 401 806 l 208 806 l 300 1007 z "},"Ż":{"ha":844,"x_min":43,"x_max":797,"o":"m 797 0 l 43 0 l 43 151 l 474 763 l 54 763 l 54 972 l 793 972 l 793 822 l 358 210 l 797 210 l 797 0 m 422 1010 q 338 1045 374 1010 q 303 1129 303 1081 q 338 1215 303 1179 q 422 1250 374 1250 q 508 1215 472 1250 q 543 1129 543 1179 q 508 1045 543 1081 q 422 1010 472 1010 z "},"ż":{"ha":654,"x_min":38,"x_max":615,"o":"m 613 589 l 328 193 l 615 193 l 615 0 l 38 0 l 38 139 l 321 536 l 44 536 l 44 729 l 613 729 l 613 589 m 336 785 q 252 820 288 785 q 217 904 217 856 q 252 990 217 954 q 336 1025 288 1025 q 422 990 386 1025 q 457 904 457 954 q 422 820 457 856 q 336 785 386 785 z "},"Ž":{"ha":844,"x_min":43,"x_max":797,"o":"m 797 0 l 43 0 l 43 151 l 474 763 l 54 763 l 54 972 l 793 972 l 793 822 l 358 210 l 797 210 l 797 0 m 538 1021 l 304 1021 l 171 1222 l 364 1222 l 422 1132 l 479 1222 l 671 1222 l 538 1021 z "},"ž":{"ha":654,"x_min":38,"x_max":615,"o":"m 613 589 l 328 193 l 615 193 l 615 0 l 38 0 l 38 139 l 321 536 l 44 536 l 44 729 l 613 729 l 613 589 m 451 806 l 218 806 l 85 1007 l 278 1007 l 336 917 l 393 1007 l 585 1007 l 451 806 z "},"ƒ":{"ha":676,"x_min":-29,"x_max":629,"o":"m 138 6 l 194 429 l 118 429 l 118 617 l 219 617 l 235 738 q 538 990 267 990 q 629 982 588 990 l 604 790 q 563 794 579 794 q 463 718 474 794 l 449 617 l 556 617 l 556 429 l 424 429 l 365 -14 q 63 -267 332 -267 q -29 -258 0 -267 l -4 -67 q 38 -71 21 -71 q 138 6 126 -71 z "},"Ǻ":{"ha":939,"x_min":8,"x_max":931,"o":"m 622 218 l 317 218 l 247 0 l 8 0 l 336 947 q 310 1031 310 985 q 356 1137 310 1096 q 469 1178 401 1178 q 585 1137 539 1178 q 631 1032 631 1096 q 603 946 631 982 l 931 0 l 692 0 l 622 218 m 449 1413 l 689 1413 l 550 1211 l 357 1211 l 449 1413 m 561 413 l 469 721 l 378 413 l 561 413 m 435 994 q 442 986 435 994 q 471 979 449 979 q 507 994 493 979 q 521 1032 521 1008 q 507 1069 521 1054 q 471 1083 493 1083 q 435 1069 449 1083 q 421 1032 421 1056 q 435 994 421 1008 z "},"ǻ":{"ha":740,"x_min":28,"x_max":683,"o":"m 28 226 q 105 402 28 336 q 311 468 182 468 q 451 442 389 468 l 451 468 q 423 525 451 503 q 340 547 394 547 q 157 501 251 547 l 71 657 q 368 747 207 747 q 614 669 544 747 q 683 451 683 590 l 683 0 l 476 0 l 464 40 q 299 -18 406 -18 q 106 47 185 -18 q 28 226 28 113 m 288 291 q 274 280 288 291 q 260 235 260 269 q 288 180 260 200 q 358 160 315 160 q 428 179 401 160 q 456 235 456 199 q 428 292 456 271 q 357 313 400 313 q 288 291 315 313 m 378 776 q 264 817 310 776 q 218 922 218 858 q 264 1028 218 988 q 378 1069 310 1069 q 493 1028 447 1069 q 539 924 539 988 q 493 817 539 858 q 378 776 447 776 m 343 885 q 350 878 343 885 q 379 871 357 871 q 415 885 401 871 q 429 924 429 900 q 415 960 429 946 q 379 975 401 975 q 343 961 357 975 q 329 924 329 947 q 343 885 329 900 m 379 1294 l 619 1294 l 481 1093 l 288 1093 l 379 1294 z "},"Ǽ":{"ha":1224,"x_min":11,"x_max":1165,"o":"m 1165 0 l 636 0 l 636 218 l 379 218 l 269 0 l 11 0 l 525 972 l 1154 972 l 1154 760 l 874 760 l 874 597 l 1113 597 l 1113 386 l 874 386 l 874 213 l 1165 213 l 1165 0 m 465 413 l 636 413 l 636 751 l 465 413 m 728 1222 l 968 1222 l 829 1021 l 636 1021 l 728 1222 z "},"ǽ":{"ha":1189,"x_min":28,"x_max":1163,"o":"m 1161 304 l 683 304 q 731 219 688 254 q 838 183 775 183 q 934 209 894 183 q 990 261 974 235 l 1143 143 q 1038 37 1118 92 q 833 -18 957 -18 q 553 86 660 -18 q 299 -18 472 -18 q 106 47 185 -18 q 28 226 28 113 q 105 402 28 336 q 311 468 182 468 q 451 442 389 468 l 451 468 q 423 525 451 503 q 340 547 394 547 q 157 501 251 547 l 71 657 q 368 747 207 747 q 593 679 514 747 q 804 747 683 747 q 1069 642 976 747 q 1163 350 1163 538 q 1161 304 1163 321 m 288 291 q 274 280 288 291 q 260 235 260 269 q 288 180 260 200 q 358 160 315 160 q 428 179 401 160 q 456 235 456 199 q 428 292 456 271 q 357 313 400 313 q 288 291 315 313 m 892 528 q 877 544 892 528 q 808 560 861 560 q 725 527 756 560 q 690 451 694 494 l 926 451 q 892 528 924 497 m 564 1007 l 804 1007 l 665 806 l 472 806 l 564 1007 z "},"Ǿ":{"ha":1094,"x_min":38,"x_max":1057,"o":"m 547 -18 q 289 43 404 -18 l 225 -36 l 103 61 l 165 139 q 38 488 38 279 q 179 847 38 703 q 547 990 321 990 q 797 932 683 990 l 860 1010 l 982 913 l 922 838 q 1057 488 1057 696 q 915 126 1057 269 q 547 -18 774 -18 m 547 204 q 736 284 663 204 q 810 488 810 364 q 768 644 810 574 l 436 228 q 547 204 488 204 m 547 768 q 358 688 432 768 q 285 488 285 608 q 321 335 285 400 l 650 747 q 547 768 604 768 m 525 1222 l 765 1222 l 626 1021 l 433 1021 l 525 1222 z "},"ǿ":{"ha":856,"x_min":29,"x_max":825,"o":"m 29 363 q 142 638 29 528 q 425 747 256 747 q 614 707 525 747 l 665 772 l 771 690 l 722 629 q 825 365 825 522 q 711 91 825 200 q 425 -18 597 -18 q 242 21 326 -18 l 186 -50 l 82 32 l 133 96 q 29 363 29 203 m 261 363 q 278 279 261 317 l 478 535 q 425 543 453 543 q 307 493 353 543 q 261 363 261 443 m 593 365 q 576 444 593 408 l 378 192 q 425 186 396 186 q 545 237 497 186 q 593 365 593 288 m 401 1007 l 642 1007 l 503 806 l 310 806 l 401 1007 z "},"Ș":{"ha":735,"x_min":24,"x_max":694,"o":"m 371 990 q 503 967 444 990 q 598 904 563 943 q 653 833 633 865 q 685 765 674 800 l 488 675 q 463 720 475 703 q 426 754 451 738 q 365 771 400 771 q 310 752 331 771 q 289 706 289 733 q 331 641 289 669 q 432 587 372 613 q 551 528 492 561 q 653 433 611 494 q 694 290 694 372 q 603 67 694 153 q 354 -18 511 -18 q 215 7 278 -18 q 115 72 153 32 q 56 146 78 111 q 24 214 35 181 l 222 313 q 282 235 243 267 q 368 204 321 204 q 454 272 454 204 q 424 327 454 301 q 350 372 394 353 q 253 419 306 390 q 156 481 200 447 q 81 571 111 514 q 51 701 51 628 q 139 911 51 832 q 371 990 226 990 m 251 -357 q 322 -268 307 -318 q 256 -226 279 -258 q 232 -154 232 -193 q 267 -72 232 -106 q 351 -37 303 -37 q 441 -75 406 -37 q 476 -175 476 -112 q 435 -326 476 -253 q 328 -442 393 -399 l 251 -357 z "},"ș":{"ha":617,"x_min":19,"x_max":597,"o":"m 300 -18 q 131 19 204 -18 q 19 107 57 57 l 150 233 q 311 169 222 169 q 376 210 376 169 q 351 244 376 229 q 290 269 326 258 q 210 298 253 279 q 130 342 167 317 q 68 413 93 367 q 43 522 43 460 q 122 686 43 625 q 324 747 201 747 q 585 622 493 747 l 435 504 q 314 561 378 561 q 261 525 261 561 q 296 484 261 500 q 380 453 331 468 q 478 417 429 439 q 563 345 528 394 q 597 222 597 296 q 513 47 597 113 q 300 -18 428 -18 m 210 -357 q 281 -268 265 -318 q 214 -226 238 -258 q 190 -154 190 -193 q 226 -72 190 -106 q 310 -37 261 -37 q 399 -75 364 -37 q 435 -175 435 -112 q 393 -326 435 -253 q 286 -442 351 -399 l 210 -357 z "},"ȷ":{"ha":365,"x_min":-58,"x_max":299,"o":"m 299 729 l 299 -3 q -7 -267 299 -267 l -58 -262 l -58 -67 q -25 -69 -40 -69 q 67 8 67 -69 l 67 729 l 299 729 z "},"ˆ":{"ha":615,"x_min":57,"x_max":557,"o":"m 190 1007 l 424 1007 l 557 806 l 365 806 l 308 896 l 250 806 l 57 806 l 190 1007 z "},"ˇ":{"ha":615,"x_min":57,"x_max":557,"o":"m 424 806 l 190 806 l 57 1007 l 250 1007 l 308 917 l 365 1007 l 557 1007 l 424 806 z "},"˘":{"ha":614,"x_min":79,"x_max":533,"o":"m 306 803 q 140 861 200 803 q 79 1014 79 919 l 242 1014 q 306 935 242 935 q 371 1014 371 935 l 533 1014 q 473 861 533 919 q 306 803 413 803 z "},"˙":{"ha":614,"x_min":188,"x_max":428,"o":"m 307 785 q 223 820 258 785 q 188 904 188 856 q 223 990 188 954 q 307 1025 258 1025 q 392 990 357 1025 q 428 904 428 954 q 392 820 428 856 q 307 785 357 785 z "},"˚":{"ha":614,"x_min":146,"x_max":467,"o":"m 306 776 q 192 817 238 776 q 146 922 146 858 q 192 1028 146 988 q 306 1069 238 1069 q 421 1028 375 1069 q 467 924 467 988 q 421 817 467 858 q 306 776 375 776 m 271 885 q 278 878 271 885 q 307 871 285 871 q 343 885 329 871 q 357 924 357 900 q 343 960 357 946 q 307 975 329 975 q 271 961 285 975 q 257 924 257 947 q 271 885 257 900 z "},"˛":{"ha":615,"x_min":181,"x_max":435,"o":"m 289 0 l 435 0 q 369 -76 369 -29 q 389 -117 369 -104 q 432 -129 408 -129 l 432 -282 q 339 -293 403 -293 q 226 -258 272 -293 q 181 -156 181 -224 q 215 -59 181 -100 q 289 0 249 -18 z "},"˜":{"ha":614,"x_min":49,"x_max":565,"o":"m 404 806 q 306 828 363 806 q 232 851 250 851 q 190 804 190 851 l 49 804 q 94 953 49 896 q 213 1010 139 1010 q 312 987 257 1010 q 383 964 367 964 q 424 1011 424 964 l 565 1011 q 522 861 565 917 q 404 806 478 806 z "},"˝":{"ha":651,"x_min":36,"x_max":614,"o":"m 128 1007 l 346 1007 l 207 806 l 36 806 l 128 1007 m 396 1007 l 614 1007 l 475 806 l 304 806 l 396 1007 z "},"Ẁ":{"ha":1381,"x_min":11,"x_max":1369,"o":"m 847 0 l 690 611 l 533 0 l 264 0 l 11 972 l 265 972 l 413 288 l 583 972 l 797 972 l 968 288 l 1115 972 l 1369 972 l 1117 0 l 847 0 m 449 1222 l 689 1222 l 781 1021 l 588 1021 l 449 1222 z "},"ẁ":{"ha":1158,"x_min":10,"x_max":1149,"o":"m 683 0 l 579 413 l 475 0 l 214 0 l 10 729 l 263 729 l 361 253 l 471 729 l 688 729 l 797 253 l 896 729 l 1149 729 l 944 0 l 683 0 m 344 1007 l 585 1007 l 676 806 l 483 806 l 344 1007 z "},"Ẃ":{"ha":1381,"x_min":11,"x_max":1369,"o":"m 847 0 l 690 611 l 533 0 l 264 0 l 11 972 l 265 972 l 413 288 l 583 972 l 797 972 l 968 288 l 1115 972 l 1369 972 l 1117 0 l 847 0 m 665 1222 l 906 1222 l 767 1021 l 574 1021 l 665 1222 z "},"ẃ":{"ha":1158,"x_min":10,"x_max":1149,"o":"m 683 0 l 579 413 l 475 0 l 214 0 l 10 729 l 263 729 l 361 253 l 471 729 l 688 729 l 797 253 l 896 729 l 1149 729 l 944 0 l 683 0 m 568 1007 l 808 1007 l 669 806 l 476 806 l 568 1007 z "},"Ẅ":{"ha":1381,"x_min":11,"x_max":1369,"o":"m 847 0 l 690 611 l 533 0 l 264 0 l 11 972 l 265 972 l 413 288 l 583 972 l 797 972 l 968 288 l 1115 972 l 1369 972 l 1117 0 l 847 0 m 551 1021 q 474 1052 504 1021 q 444 1128 444 1083 q 474 1203 444 1172 q 551 1235 504 1235 q 628 1203 597 1235 q 658 1128 658 1172 q 628 1052 658 1083 q 551 1021 597 1021 m 831 1021 q 753 1052 783 1021 q 724 1128 724 1083 q 753 1203 724 1172 q 831 1235 783 1235 q 907 1203 876 1235 q 938 1128 938 1172 q 907 1052 938 1083 q 831 1021 876 1021 z "},"ẅ":{"ha":1158,"x_min":10,"x_max":1149,"o":"m 683 0 l 579 413 l 475 0 l 214 0 l 10 729 l 263 729 l 361 253 l 471 729 l 688 729 l 797 253 l 896 729 l 1149 729 l 944 0 l 683 0 m 440 800 q 363 831 393 800 q 333 907 333 863 q 363 983 333 951 q 440 1014 393 1014 q 517 983 486 1014 q 547 907 547 951 q 517 831 547 863 q 440 800 486 800 m 719 800 q 642 831 672 800 q 613 907 613 863 q 642 983 613 951 q 719 1014 672 1014 q 796 983 765 1014 q 826 907 826 951 q 796 831 826 863 q 719 800 765 800 z "},"Ỳ":{"ha":847,"x_min":8,"x_max":839,"o":"m 542 0 l 306 0 l 306 439 l 8 972 l 275 972 l 424 654 l 576 972 l 839 972 l 542 439 l 542 0 m 206 1222 l 446 1222 l 538 1021 l 344 1021 l 206 1222 z "},"ỳ":{"ha":772,"x_min":8,"x_max":763,"o":"m 763 729 l 401 -249 l 182 -249 l 281 24 l 8 729 l 257 729 l 386 310 l 521 729 l 763 729 m 168 1007 l 408 1007 l 500 806 l 307 806 l 168 1007 z "},"–":{"ha":933,"x_min":65,"x_max":868,"o":"m 868 338 l 65 338 l 65 526 l 868 526 l 868 338 z "},"—":{"ha":1313,"x_min":65,"x_max":1246,"o":"m 1246 338 l 65 338 l 65 526 l 1246 526 l 1246 338 z "},"‘":{"ha":340,"x_min":31,"x_max":310,"o":"m 299 928 q 236 876 267 910 q 200 808 206 843 q 281 758 251 796 q 310 674 310 719 q 269 576 310 617 q 172 535 229 535 q 72 574 113 535 q 31 685 31 614 q 78 881 31 789 q 208 1028 126 972 l 299 928 z "},"’":{"ha":340,"x_min":31,"x_max":310,"o":"m 42 635 q 104 686 74 653 q 140 754 135 719 q 60 805 89 767 q 31 889 31 843 q 71 987 31 946 q 168 1028 111 1028 q 269 988 228 1028 q 310 878 310 949 q 262 682 310 774 q 132 535 214 590 l 42 635 z "},"‚":{"ha":363,"x_min":43,"x_max":322,"o":"m 54 -135 q 117 -83 86 -117 q 153 -15 147 -50 q 72 35 101 -3 q 43 119 43 74 q 83 217 43 176 q 181 258 124 258 q 281 219 240 258 q 322 108 322 179 q 274 -87 322 4 q 144 -235 226 -179 l 54 -135 z "},"“":{"ha":654,"x_min":31,"x_max":624,"o":"m 299 928 q 236 876 267 910 q 200 808 206 843 q 281 758 251 796 q 310 674 310 719 q 269 576 310 617 q 172 535 229 535 q 72 574 113 535 q 31 685 31 614 q 78 881 31 789 q 208 1028 126 972 l 299 928 m 613 928 q 550 876 581 910 q 514 808 519 843 q 594 758 565 796 q 624 674 624 719 q 583 576 624 617 q 486 535 543 535 q 385 574 426 535 q 344 685 344 614 q 392 881 344 789 q 522 1028 440 972 l 613 928 z "},"”":{"ha":654,"x_min":31,"x_max":624,"o":"m 356 635 q 418 686 388 653 q 454 754 449 719 q 374 805 403 767 q 344 889 344 843 q 385 987 344 946 q 482 1028 425 1028 q 583 988 542 1028 q 624 878 624 949 q 576 682 624 774 q 446 535 528 590 l 356 635 m 42 635 q 104 686 74 653 q 140 754 135 719 q 60 805 89 767 q 31 889 31 843 q 71 987 31 946 q 168 1028 111 1028 q 269 988 228 1028 q 310 878 310 949 q 262 682 310 774 q 132 535 214 590 l 42 635 z "},"„":{"ha":654,"x_min":31,"x_max":624,"o":"m 356 -135 q 418 -83 388 -117 q 454 -15 449 -50 q 374 35 403 -3 q 344 119 344 74 q 385 217 344 176 q 482 258 425 258 q 583 219 542 258 q 624 108 624 179 q 576 -87 624 4 q 446 -235 528 -179 l 356 -135 m 42 -135 q 104 -83 74 -117 q 140 -15 135 -50 q 60 35 89 -3 q 31 119 31 74 q 71 217 31 176 q 168 258 111 258 q 269 219 228 258 q 310 108 310 179 q 262 -87 310 4 q 132 -235 214 -179 l 42 -135 z "},"†":{"ha":622,"x_min":33,"x_max":590,"o":"m 590 550 l 425 550 l 425 0 l 197 0 l 197 550 l 33 550 l 33 751 l 197 751 l 197 972 l 425 972 l 425 751 l 590 751 l 590 550 z "},"‡":{"ha":624,"x_min":33,"x_max":590,"o":"m 33 421 l 197 421 l 197 550 l 33 550 l 33 751 l 197 751 l 197 972 l 425 972 l 425 751 l 590 751 l 590 550 l 425 550 l 425 421 l 590 421 l 590 221 l 425 221 l 425 0 l 197 0 l 197 221 l 33 221 l 33 421 z "},"•":{"ha":564,"x_min":43,"x_max":521,"o":"m 453 261 q 419 226 453 261 q 282 192 385 192 q 111 261 179 192 q 43 431 43 331 q 111 600 43 531 q 282 669 179 669 q 453 600 385 669 q 521 431 521 531 q 453 261 521 331 z "},"…":{"ha":1135,"x_min":43,"x_max":1092,"o":"m 278 22 q 258 2 278 22 q 181 -18 238 -18 q 83 22 124 -18 q 43 119 43 63 q 83 217 43 176 q 181 258 124 258 q 278 217 238 258 q 319 119 319 176 q 278 22 319 63 m 665 22 q 644 2 665 22 q 567 -18 624 -18 q 469 22 510 -18 q 429 119 429 63 q 469 217 429 176 q 567 258 510 258 q 665 217 624 258 q 706 119 706 176 q 665 22 706 63 m 1051 22 q 1030 2 1051 22 q 953 -18 1010 -18 q 856 22 896 -18 q 815 119 815 63 q 856 217 815 176 q 953 258 896 258 q 1051 217 1010 258 q 1092 119 1092 176 q 1051 22 1092 63 z "},"‰":{"ha":1704,"x_min":31,"x_max":1674,"o":"m 1053 972 l 319 0 l 97 0 l 831 972 l 1053 972 m 794 222 q 816 167 794 189 q 869 144 838 144 q 925 167 904 144 q 946 222 946 189 q 924 276 946 254 q 869 297 903 297 q 815 275 836 297 q 794 222 794 253 m 622 221 q 692 392 622 322 q 868 461 763 461 q 1047 392 976 461 q 1118 221 1118 322 q 1047 51 1118 119 q 869 -18 976 -18 q 692 50 761 -18 q 622 221 622 118 m 203 751 q 224 696 203 718 q 278 674 246 674 q 333 696 313 674 q 354 751 354 718 q 333 805 354 783 q 278 826 311 826 q 224 804 244 826 q 203 751 203 782 m 31 750 q 101 921 31 851 q 276 990 171 990 q 456 921 385 990 q 526 750 526 851 q 456 580 526 649 q 278 511 385 511 q 100 579 169 511 q 31 750 31 647 m 1350 222 q 1372 167 1350 189 q 1425 144 1393 144 q 1481 167 1460 144 q 1501 222 1501 189 q 1480 276 1501 254 q 1425 297 1458 297 q 1371 275 1392 297 q 1350 222 1350 253 m 1178 221 q 1248 392 1178 322 q 1424 461 1318 461 q 1603 392 1532 461 q 1674 221 1674 322 q 1603 51 1674 119 q 1425 -18 1532 -18 q 1247 50 1317 -18 q 1178 221 1178 118 z "},"‹":{"ha":442,"x_min":35,"x_max":407,"o":"m 407 147 l 203 147 l 35 411 l 203 675 l 407 675 l 238 411 l 407 147 z "},"›":{"ha":442,"x_min":35,"x_max":407,"o":"m 239 147 l 35 147 l 204 411 l 35 675 l 239 675 l 407 411 l 239 147 z "},"⁄":{"ha":667,"x_min":-19,"x_max":688,"o":"m 688 1029 l 176 -57 l -19 -57 l 490 1029 l 688 1029 z "},"€":{"ha":908,"x_min":32,"x_max":847,"o":"m 32 671 l 128 671 q 299 901 176 811 q 585 990 422 990 q 839 928 736 990 l 742 733 q 586 774 671 774 q 469 747 522 774 q 388 671 415 719 l 656 671 l 642 522 l 346 522 q 344 488 344 511 q 347 457 344 471 l 635 457 l 621 308 l 396 308 q 601 206 458 206 q 758 249 692 206 l 847 56 q 750 4 817 26 q 601 -18 683 -18 q 301 71 425 -18 q 126 308 176 160 l 32 308 l 32 457 l 99 457 q 97 486 97 467 q 99 522 97 510 l 32 522 l 32 671 z "},"№":{"ha":1601,"x_min":83,"x_max":1538,"o":"m 1169 732 q 1197 661 1169 690 q 1272 632 1225 632 q 1346 661 1318 632 q 1374 732 1374 690 q 1347 806 1374 775 q 1272 836 1319 836 q 1197 806 1225 836 q 1169 732 1169 775 m 1081 553 q 1044 590 1081 553 q 1007 732 1007 628 q 1081 913 1007 836 q 1272 990 1156 990 q 1463 913 1389 990 q 1538 732 1538 836 q 1463 553 1538 628 q 1272 478 1389 478 q 1081 553 1156 478 m 678 0 l 317 596 l 317 0 l 83 0 l 83 972 l 325 972 l 681 369 l 681 972 l 914 972 l 914 0 l 678 0 m 1033 236 l 1033 415 l 1508 415 l 1508 236 l 1033 236 z "},"™":{"ha":1114,"x_min":47,"x_max":1067,"o":"m 438 972 l 438 835 l 321 835 l 321 471 l 165 471 l 165 835 l 47 835 l 47 972 l 438 972 m 843 526 l 704 526 l 631 728 l 631 471 l 481 471 l 481 972 l 679 972 l 772 704 l 868 972 l 1067 972 l 1067 471 l 917 471 l 917 728 l 843 526 z "},"−":{"ha":765,"x_min":49,"x_max":717,"o":"m 49 342 l 49 525 l 717 525 l 717 342 l 49 342 z "},"":{"ha":449,"x_min":101,"x_max":346,"o":"m 121 -357 q 192 -268 176 -318 q 125 -226 149 -258 q 101 -154 101 -193 q 137 -72 101 -106 q 221 -37 172 -37 q 310 -75 275 -37 q 346 -175 346 -112 q 304 -326 346 -253 q 197 -442 263 -399 l 121 -357 z "}}}
